G04*
G04 #@! TF.GenerationSoftware,Altium Limited,Altium Designer,20.1.11 (218)*
G04*
G04 Layer_Color=65535*
%FSLAX25Y25*%
%MOIN*%
G70*
G04*
G04 #@! TF.SameCoordinates,CF1E9CB3-0BC2-4E6C-9A0D-545EBE8527ED*
G04*
G04*
G04 #@! TF.FilePolarity,Positive*
G04*
G01*
G75*
%ADD10C,0.00984*%
%ADD11C,0.01000*%
%ADD12C,0.02362*%
%ADD13C,0.00787*%
%ADD14C,0.00600*%
D10*
X177744Y237126D02*
X177006Y237552D01*
Y236700D01*
X177744Y237126D01*
X212717Y385890D02*
X211978Y386316D01*
Y385464D01*
X212717Y385890D01*
X163906Y303500D02*
X163167Y303926D01*
Y303074D01*
X163906Y303500D01*
X213079D02*
X212340Y303926D01*
Y303074D01*
X213079Y303500D01*
X256618Y384150D02*
X255880Y384576D01*
Y383723D01*
X256618Y384150D01*
X264366Y274807D02*
X263628Y275233D01*
Y274381D01*
X264366Y274807D01*
X340409Y361453D02*
X339671Y361879D01*
Y361027D01*
X340409Y361453D01*
X248012Y356744D02*
X247274Y357170D01*
Y356318D01*
X248012Y356744D01*
D11*
X284000Y376000D02*
X283250Y376433D01*
Y375567D01*
X284000Y376000D01*
D12*
X271256Y283370D02*
X270811Y284294D01*
X269812Y284522D01*
X269011Y283882D01*
Y282858D01*
X269812Y282219D01*
X270811Y282447D01*
X271256Y283370D01*
D13*
X306461Y427026D02*
X307411Y426685D01*
X308366Y426359D01*
X309326Y426049D01*
X310291Y425754D01*
X311260Y425474D01*
X312234Y425211D01*
X313213Y424963D01*
X314195Y424731D01*
X315180Y424514D01*
X316169Y424314D01*
X317161Y424130D01*
X318156Y423961D01*
X319154Y423809D01*
X320153Y423672D01*
X321155Y423552D01*
X322159Y423449D01*
X323164Y423361D01*
X324171Y423289D01*
X325178Y423234D01*
X326187Y423195D01*
X327196Y423172D01*
X328204Y423165D01*
X329214Y423175D01*
X330222Y423201D01*
X331230Y423243D01*
X332238Y423302D01*
X333244Y423377D01*
X334249Y423467D01*
X335252Y423574D01*
X336254Y423698D01*
X337253Y423837D01*
X338250Y423993D01*
X339245Y424164D01*
X340236Y424352D01*
X341225Y424555D01*
X342209Y424775D01*
X343191Y425010D01*
X344168Y425261D01*
X345141Y425528D01*
X215000Y265000D02*
X245000D01*
Y275000D01*
X215000D02*
X245000D01*
X215000Y265000D02*
Y275000D01*
X295000Y205000D02*
X305000D01*
X295000D02*
Y225000D01*
X305000D01*
Y205000D02*
Y225000D01*
X225000Y315000D02*
X245000D01*
X225000Y285000D02*
X245000D01*
X225000D02*
Y315000D01*
X245000Y285000D02*
Y315000D01*
Y295833D02*
Y315000D01*
X214488Y250539D02*
Y255461D01*
X225512Y250539D02*
Y255461D01*
X321813Y355122D02*
X323387D01*
X321813Y357878D02*
X323387D01*
X163622Y276213D02*
Y277787D01*
X166378Y276213D02*
Y277787D01*
X178443Y275244D02*
X180510D01*
X172242D02*
X172833D01*
X172242Y288630D02*
X172833D01*
X179919D02*
X180510D01*
X179622Y204213D02*
Y205787D01*
X182378Y204213D02*
Y205787D01*
X179811Y225315D02*
X180933D01*
X179811D02*
Y226437D01*
X191091Y225315D02*
X192213D01*
Y226437D01*
Y236595D02*
Y237717D01*
X191091D02*
X192213D01*
X179811D02*
X180933D01*
X179811Y236595D02*
Y237717D01*
X189862Y276126D02*
Y277701D01*
X187107Y276126D02*
Y277701D01*
X187107Y287126D02*
Y288701D01*
X189862Y287126D02*
Y288701D01*
X206319Y386972D02*
X208681D01*
X206319Y396028D02*
X208681D01*
Y386972D02*
Y396028D01*
X206319Y386972D02*
Y396028D01*
X242622Y358213D02*
Y359787D01*
X245378Y358213D02*
Y359787D01*
X254878Y326213D02*
Y327787D01*
X252122Y326213D02*
Y327787D01*
X262213Y379122D02*
X263787D01*
X262213Y381878D02*
X263787D01*
X272213Y262878D02*
X273787D01*
X272213Y260122D02*
X273787D01*
X300197Y349177D02*
Y350752D01*
X302953Y349177D02*
Y350752D01*
X305197Y349177D02*
Y350752D01*
X307953Y349177D02*
Y350752D01*
X314622Y222213D02*
Y223787D01*
X317378Y222213D02*
Y223787D01*
X321622Y222213D02*
Y223787D01*
X324378Y222213D02*
Y223787D01*
X158713Y225378D02*
X160287D01*
X158713Y222622D02*
X160287D01*
X158713Y216122D02*
X160287D01*
X158713Y218878D02*
X160287D01*
X158713Y237622D02*
X160287D01*
X158713Y240378D02*
X160287D01*
X158760Y229122D02*
X160335D01*
X158760Y231878D02*
X160335D01*
X170303Y301728D02*
X170697D01*
X170303Y305272D02*
X170697D01*
X183213Y215378D02*
X184787D01*
X183213Y212622D02*
X184787D01*
X189213Y206622D02*
X190787D01*
X189213Y209378D02*
X190787D01*
X189213Y203378D02*
X190787D01*
X189213Y200622D02*
X190787D01*
X190713Y254622D02*
X192287D01*
X190713Y257378D02*
X192287D01*
X190713Y247622D02*
X192287D01*
X190713Y250378D02*
X192287D01*
X205213Y216122D02*
X206787D01*
X205213Y218878D02*
X206787D01*
X205213Y222622D02*
X206787D01*
X205213Y225378D02*
X206787D01*
X205213Y229122D02*
X206787D01*
X205213Y231878D02*
X206787D01*
X205303Y305272D02*
X205697D01*
X205303Y301728D02*
X205697D01*
X288579Y279433D02*
Y301874D01*
X266138Y279433D02*
Y301874D01*
X288579D01*
X266138Y279433D02*
X288579D01*
X356650Y371098D02*
Y420114D01*
X300350Y377201D02*
Y397870D01*
Y406531D02*
Y420114D01*
X345142Y425528D02*
X349799D01*
X321913Y343878D02*
X323487D01*
X321913Y341122D02*
X323487D01*
X321813Y352678D02*
X323387D01*
X321813Y349922D02*
X323387D01*
X249878Y279713D02*
Y281287D01*
X247122Y279713D02*
Y281287D01*
Y302713D02*
Y304287D01*
X249878Y302713D02*
Y304287D01*
X254016Y363732D02*
X255984D01*
X254016Y355268D02*
X255984D01*
X282713Y260122D02*
X284287D01*
X282713Y262878D02*
X284287D01*
X295197Y349177D02*
Y350752D01*
X297953Y349177D02*
Y350752D01*
X159378Y299713D02*
Y301287D01*
X156622Y299713D02*
Y301287D01*
X166622Y219713D02*
Y221287D01*
X169378Y219713D02*
Y221287D01*
X197563Y279776D02*
Y289224D01*
X205437Y279776D02*
Y289224D01*
X219378Y299713D02*
Y301287D01*
X216622Y299713D02*
Y301287D01*
X249878Y291713D02*
Y293287D01*
X247122Y291713D02*
Y293287D01*
X282665Y254122D02*
X284240D01*
X282665Y256878D02*
X284240D01*
X266713Y321378D02*
X268287D01*
X266713Y318622D02*
X268287D01*
X306878Y299713D02*
Y301287D01*
X304122Y299713D02*
Y301287D01*
X145000Y245000D02*
Y265000D01*
Y245000D02*
X155000D01*
Y265000D01*
X145000D02*
X155000D01*
X275000Y205000D02*
Y225000D01*
X235000Y205000D02*
Y225000D01*
X275000D01*
X235000Y205000D02*
X275000D01*
X315000Y295000D02*
X335000D01*
X315000Y255000D02*
X335000D01*
X315000D02*
Y295000D01*
X335000Y255000D02*
Y295000D01*
X156874Y379098D02*
X166126D01*
X149098Y386874D02*
Y396126D01*
X156874Y403902D02*
X166126D01*
X173902Y386874D02*
Y396126D01*
X235000Y245000D02*
X315000D01*
X235000Y235000D02*
Y245000D01*
Y235000D02*
X315000D01*
Y245000D01*
X165000Y315000D02*
Y325000D01*
X185000D01*
Y315000D02*
Y325000D01*
X165000Y315000D02*
X185000D01*
X215000D02*
Y325000D01*
X195000Y315000D02*
X215000D01*
X195000D02*
Y325000D01*
X215000D01*
X295000Y315000D02*
Y325000D01*
X335000D01*
X295000Y315000D02*
X335000D01*
Y325000D01*
X278622Y398713D02*
Y400287D01*
X281378Y398713D02*
Y400287D01*
X275878Y380213D02*
Y381787D01*
X273122Y380213D02*
Y381787D01*
D14*
X156500Y250000D02*
X158500D01*
X289000Y220000D02*
X293000D01*
X289000Y202500D02*
Y220000D01*
X288500Y383500D02*
Y385500D01*
X278500Y383500D02*
Y385500D01*
X179201Y326600D02*
X178668Y327133D01*
Y328200D01*
X179201Y328733D01*
X179734D01*
X180267Y328200D01*
Y327666D01*
Y328200D01*
X180800Y328733D01*
X181334D01*
X181867Y328200D01*
Y327133D01*
X181334Y326600D01*
X178668Y329799D02*
X180800D01*
X181867Y330865D01*
X180800Y331932D01*
X178668D01*
X182400Y332998D02*
Y335131D01*
X181867Y336197D02*
X179734D01*
X178668Y337263D01*
X179734Y338330D01*
X181867D01*
X180267D01*
Y336197D01*
X178668Y339396D02*
X181334D01*
X181867Y339929D01*
Y340995D01*
X181334Y341529D01*
X178668D01*
Y342595D02*
X181867Y344727D01*
X178668D02*
X181867Y342595D01*
X217600Y279799D02*
Y277666D01*
X218666Y276600D01*
X219733Y277666D01*
Y279799D01*
X222932Y279266D02*
X222398Y279799D01*
X221332D01*
X220799Y279266D01*
Y278733D01*
X221332Y278200D01*
X222398D01*
X222932Y277666D01*
Y277133D01*
X222398Y276600D01*
X221332D01*
X220799Y277133D01*
X223998Y279799D02*
X226131D01*
X225064D01*
Y276600D01*
X228796Y279799D02*
X227730D01*
X227197Y279266D01*
Y277133D01*
X227730Y276600D01*
X228796D01*
X229330Y277133D01*
Y279266D01*
X228796Y279799D01*
X230396Y276600D02*
Y279799D01*
X231995D01*
X232528Y279266D01*
Y278200D01*
X231995Y277666D01*
X230396D01*
X231462D02*
X232528Y276600D01*
X247100Y271299D02*
Y269166D01*
X248166Y268100D01*
X249233Y269166D01*
Y271299D01*
X250299D02*
Y268100D01*
X251899D01*
X252432Y268633D01*
Y269166D01*
X251899Y269700D01*
X250299D01*
X251899D01*
X252432Y270233D01*
Y270766D01*
X251899Y271299D01*
X250299D01*
X253498Y268100D02*
Y270233D01*
X254564Y271299D01*
X255631Y270233D01*
Y268100D01*
Y269700D01*
X253498D01*
X257230Y270766D02*
Y270233D01*
X256697D01*
X257763D01*
X257230D01*
Y268633D01*
X257763Y268100D01*
X231233Y262766D02*
X230699Y263299D01*
X229633D01*
X229100Y262766D01*
Y260633D01*
X229633Y260100D01*
X230699D01*
X231233Y260633D01*
Y261700D01*
X230166D01*
X159701Y243100D02*
X161834D01*
X162900Y244166D01*
X161834Y245233D01*
X159701D01*
X160234Y248432D02*
X159701Y247899D01*
Y246832D01*
X160234Y246299D01*
X160767D01*
X161301Y246832D01*
Y247899D01*
X161834Y248432D01*
X162367D01*
X162900Y247899D01*
Y246832D01*
X162367Y246299D01*
X159701Y251097D02*
Y250031D01*
X160234Y249498D01*
X162367D01*
X162900Y250031D01*
Y251097D01*
X162367Y251631D01*
X160234D01*
X159701Y251097D01*
Y252697D02*
X162900D01*
Y254830D01*
Y255896D02*
X160767D01*
X159701Y256962D01*
X160767Y258029D01*
X162900D01*
X161301D01*
Y255896D01*
X162900Y259095D02*
X159701D01*
Y260694D01*
X160234Y261227D01*
X161301D01*
X161834Y260694D01*
Y259095D01*
Y260161D02*
X162900Y261227D01*
X159233Y265766D02*
X158700Y266299D01*
X157633D01*
X157100Y265766D01*
Y263633D01*
X157633Y263100D01*
X158700D01*
X159233Y263633D01*
Y264700D01*
X158166D01*
X160299Y263100D02*
Y266299D01*
X162432Y263100D01*
Y266299D01*
X163498D02*
Y263100D01*
X165097D01*
X165631Y263633D01*
Y265766D01*
X165097Y266299D01*
X163498D01*
X300733Y312766D02*
X300200Y313299D01*
X299133D01*
X298600Y312766D01*
Y310633D01*
X299133Y310100D01*
X300200D01*
X300733Y310633D01*
Y311700D01*
X299666D01*
X307100Y310100D02*
Y313299D01*
X308699D01*
X309233Y312766D01*
Y311700D01*
X308699Y311166D01*
X307100D01*
X308166D02*
X309233Y310100D01*
X310299Y313299D02*
X312432Y310100D01*
Y313299D02*
X310299Y310100D01*
X317100Y313299D02*
X319233D01*
X318166D01*
Y310100D01*
X320299Y313299D02*
X322432Y310100D01*
Y313299D02*
X320299Y310100D01*
X325600Y313299D02*
Y311166D01*
X326666Y310100D01*
X327733Y311166D01*
Y313299D01*
X330932Y312766D02*
X330399Y313299D01*
X329332D01*
X328799Y312766D01*
Y310633D01*
X329332Y310100D01*
X330399D01*
X330932Y310633D01*
X334131Y312766D02*
X333597Y313299D01*
X332531D01*
X331998Y312766D01*
Y310633D01*
X332531Y310100D01*
X333597D01*
X334131Y310633D01*
X301733Y292266D02*
X301200Y292799D01*
X300133D01*
X299600Y292266D01*
Y290133D01*
X300133Y289600D01*
X301200D01*
X301733Y290133D01*
Y291199D01*
X300666D01*
X305100Y292799D02*
Y290666D01*
X306166Y289600D01*
X307233Y290666D01*
Y292799D01*
X310432Y292266D02*
X309898Y292799D01*
X308832D01*
X308299Y292266D01*
Y290133D01*
X308832Y289600D01*
X309898D01*
X310432Y290133D01*
X313631Y292266D02*
X313097Y292799D01*
X312031D01*
X311498Y292266D01*
Y290133D01*
X312031Y289600D01*
X313097D01*
X313631Y290133D01*
X298600Y278100D02*
Y281299D01*
X299666Y280233D01*
X300733Y281299D01*
Y278100D01*
X301799Y281299D02*
X302865D01*
X302332D01*
Y278100D01*
X301799D01*
X302865D01*
X308100D02*
Y281299D01*
X309166Y280233D01*
X310233Y281299D01*
Y278100D01*
X312898Y281299D02*
X311832D01*
X311299Y280766D01*
Y278633D01*
X311832Y278100D01*
X312898D01*
X313432Y278633D01*
Y280766D01*
X312898Y281299D01*
X296233Y271266D02*
X295700Y271799D01*
X294633D01*
X294100Y271266D01*
Y270733D01*
X294633Y270199D01*
X295700D01*
X296233Y269666D01*
Y269133D01*
X295700Y268600D01*
X294633D01*
X294100Y269133D01*
X299432Y271266D02*
X298899Y271799D01*
X297832D01*
X297299Y271266D01*
Y269133D01*
X297832Y268600D01*
X298899D01*
X299432Y269133D01*
X300498Y271799D02*
Y268600D01*
Y269666D01*
X302631Y271799D01*
X301031Y270199D01*
X302631Y268600D01*
X307233Y271266D02*
X306699Y271799D01*
X305633D01*
X305100Y271266D01*
Y269133D01*
X305633Y268600D01*
X306699D01*
X307233Y269133D01*
X310432Y271266D02*
X309898Y271799D01*
X308832D01*
X308299Y271266D01*
Y270733D01*
X308832Y270199D01*
X309898D01*
X310432Y269666D01*
Y269133D01*
X309898Y268600D01*
X308832D01*
X308299Y269133D01*
X311498Y271266D02*
X312031Y271799D01*
X313097D01*
X313631Y271266D01*
Y270733D01*
X313097Y270199D01*
X312564D01*
X313097D01*
X313631Y269666D01*
Y269133D01*
X313097Y268600D01*
X312031D01*
X311498Y269133D01*
X296233Y260766D02*
X295700Y261299D01*
X294633D01*
X294100Y260766D01*
Y258633D01*
X294633Y258100D01*
X295700D01*
X296233Y258633D01*
X299432Y260766D02*
X298899Y261299D01*
X297832D01*
X297299Y260766D01*
Y260233D01*
X297832Y259700D01*
X298899D01*
X299432Y259166D01*
Y258633D01*
X298899Y258100D01*
X297832D01*
X297299Y258633D01*
X302631Y258100D02*
X300498D01*
X302631Y260233D01*
Y260766D01*
X302097Y261299D01*
X301031D01*
X300498Y260766D01*
X307733D02*
X307200Y261299D01*
X306133D01*
X305600Y260766D01*
Y258633D01*
X306133Y258100D01*
X307200D01*
X307733Y258633D01*
X310932Y260766D02*
X310399Y261299D01*
X309332D01*
X308799Y260766D01*
Y260233D01*
X309332Y259700D01*
X310399D01*
X310932Y259166D01*
Y258633D01*
X310399Y258100D01*
X309332D01*
X308799Y258633D01*
X311998Y258100D02*
X313064D01*
X312531D01*
Y261299D01*
X311998Y260766D01*
X309233Y210766D02*
X308699Y211299D01*
X307633D01*
X307100Y210766D01*
Y208633D01*
X307633Y208100D01*
X308699D01*
X309233Y208633D01*
Y209700D01*
X308166D01*
X308233Y231766D02*
X307699Y232299D01*
X306633D01*
X306100Y231766D01*
Y229633D01*
X306633Y229100D01*
X307699D01*
X308233Y229633D01*
Y230699D01*
X307166D01*
X309299Y229100D02*
Y232299D01*
X311432Y229100D01*
Y232299D01*
X312498D02*
Y229100D01*
X314097D01*
X314631Y229633D01*
Y231766D01*
X314097Y232299D01*
X312498D01*
X299233Y231766D02*
X298699Y232299D01*
X297633D01*
X297100Y231766D01*
Y229633D01*
X297633Y229100D01*
X298699D01*
X299233Y229633D01*
Y230699D01*
X298166D01*
X302432Y232299D02*
X301365Y231766D01*
X300299Y230699D01*
Y229633D01*
X300832Y229100D01*
X301899D01*
X302432Y229633D01*
Y230166D01*
X301899Y230699D01*
X300299D01*
X289233Y231766D02*
X288700Y232299D01*
X287633D01*
X287100Y231766D01*
Y229633D01*
X287633Y229100D01*
X288700D01*
X289233Y229633D01*
Y230699D01*
X288166D01*
X292432Y232299D02*
X290299D01*
Y230699D01*
X291365Y231233D01*
X291898D01*
X292432Y230699D01*
Y229633D01*
X291898Y229100D01*
X290832D01*
X290299Y229633D01*
X279733Y231766D02*
X279200Y232299D01*
X278133D01*
X277600Y231766D01*
Y229633D01*
X278133Y229100D01*
X279200D01*
X279733Y229633D01*
Y230699D01*
X278666D01*
X282399Y229100D02*
Y232299D01*
X280799Y230699D01*
X282932D01*
X269233Y231766D02*
X268700Y232299D01*
X267633D01*
X267100Y231766D01*
Y229633D01*
X267633Y229100D01*
X268700D01*
X269233Y229633D01*
Y230699D01*
X268166D01*
X270299Y231766D02*
X270832Y232299D01*
X271899D01*
X272432Y231766D01*
Y231233D01*
X271899Y230699D01*
X271365D01*
X271899D01*
X272432Y230166D01*
Y229633D01*
X271899Y229100D01*
X270832D01*
X270299Y229633D01*
X259733Y231766D02*
X259200Y232299D01*
X258133D01*
X257600Y231766D01*
Y229633D01*
X258133Y229100D01*
X259200D01*
X259733Y229633D01*
Y230699D01*
X258666D01*
X262932Y229100D02*
X260799D01*
X262932Y231233D01*
Y231766D01*
X262399Y232299D01*
X261332D01*
X260799Y231766D01*
X249733D02*
X249200Y232299D01*
X248133D01*
X247600Y231766D01*
Y229633D01*
X248133Y229100D01*
X249200D01*
X249733Y229633D01*
Y230699D01*
X248666D01*
X250799Y229100D02*
X251865D01*
X251332D01*
Y232299D01*
X250799Y231766D01*
X239233D02*
X238700Y232299D01*
X237633D01*
X237100Y231766D01*
Y229633D01*
X237633Y229100D01*
X238700D01*
X239233Y229633D01*
Y230699D01*
X238166D01*
X240299Y231766D02*
X240832Y232299D01*
X241898D01*
X242432Y231766D01*
Y229633D01*
X241898Y229100D01*
X240832D01*
X240299Y229633D01*
Y231766D01*
X286100Y197600D02*
Y199733D01*
X287166Y200799D01*
X288233Y199733D01*
Y197600D01*
Y199199D01*
X286100D01*
X289299Y197600D02*
Y200799D01*
X291432Y197600D01*
Y200799D01*
X292498Y197600D02*
Y199733D01*
X293564Y200799D01*
X294631Y199733D01*
Y197600D01*
Y199199D01*
X292498D01*
X295697Y200799D02*
Y197600D01*
X297830D01*
X300495Y200799D02*
X299429D01*
X298896Y200266D01*
Y198133D01*
X299429Y197600D01*
X300495D01*
X301028Y198133D01*
Y200266D01*
X300495Y200799D01*
X304227Y200266D02*
X303694Y200799D01*
X302628D01*
X302095Y200266D01*
Y198133D01*
X302628Y197600D01*
X303694D01*
X304227Y198133D01*
Y199199D01*
X303161D01*
X308493Y200799D02*
X309559D01*
X309026D01*
Y197600D01*
X308493D01*
X309559D01*
X311159D02*
Y200799D01*
X313291Y197600D01*
Y200799D01*
X268233Y200766D02*
X267700Y201299D01*
X266633D01*
X266100Y200766D01*
Y198633D01*
X266633Y198100D01*
X267700D01*
X268233Y198633D01*
Y199699D01*
X267166D01*
X269299Y198100D02*
Y201299D01*
X271432Y198100D01*
Y201299D01*
X272498D02*
Y198100D01*
X274097D01*
X274631Y198633D01*
Y200766D01*
X274097Y201299D01*
X272498D01*
X255600Y202799D02*
Y200666D01*
X256666Y199600D01*
X257733Y200666D01*
Y202799D01*
X260932Y202266D02*
X260399Y202799D01*
X259332D01*
X258799Y202266D01*
Y200133D01*
X259332Y199600D01*
X260399D01*
X260932Y200133D01*
X264131Y202266D02*
X263597Y202799D01*
X262531D01*
X261998Y202266D01*
Y200133D01*
X262531Y199600D01*
X263597D01*
X264131Y200133D01*
X248233Y200766D02*
X247699Y201299D01*
X246633D01*
X246100Y200766D01*
Y200233D01*
X246633Y199699D01*
X247699D01*
X248233Y199166D01*
Y198633D01*
X247699Y198100D01*
X246633D01*
X246100Y198633D01*
X251432Y200766D02*
X250899Y201299D01*
X249832D01*
X249299Y200766D01*
Y198633D01*
X249832Y198100D01*
X250899D01*
X251432Y198633D01*
X252498Y201299D02*
Y198100D01*
X254631D01*
X237233Y202266D02*
X236700Y202799D01*
X235633D01*
X235100Y202266D01*
Y201733D01*
X235633Y201200D01*
X236700D01*
X237233Y200666D01*
Y200133D01*
X236700Y199600D01*
X235633D01*
X235100Y200133D01*
X238299Y202799D02*
Y199600D01*
X239898D01*
X240432Y200133D01*
Y202266D01*
X239898Y202799D01*
X238299D01*
X241498Y199600D02*
Y201733D01*
X242564Y202799D01*
X243631Y201733D01*
Y199600D01*
Y201200D01*
X241498D01*
X228600Y330600D02*
Y333799D01*
X230733Y330600D01*
Y333799D01*
X233932Y333266D02*
X233399Y333799D01*
X232332D01*
X231799Y333266D01*
Y331133D01*
X232332Y330600D01*
X233399D01*
X233932Y331133D01*
X221233Y323266D02*
X220700Y323799D01*
X219633D01*
X219100Y323266D01*
Y322733D01*
X219633Y322200D01*
X220700D01*
X221233Y321666D01*
Y321133D01*
X220700Y320600D01*
X219633D01*
X219100Y321133D01*
X222299Y323799D02*
Y320600D01*
X223365Y321666D01*
X224432Y320600D01*
Y323799D01*
X225498D02*
Y320600D01*
X227097D01*
X227631Y321133D01*
Y323266D01*
X227097Y323799D01*
X225498D01*
X228697D02*
X229763D01*
X229230D01*
Y320600D01*
X228697D01*
X229763D01*
X232962Y323799D02*
X231896D01*
X231363Y323266D01*
Y321133D01*
X231896Y320600D01*
X232962D01*
X233495Y321133D01*
Y323266D01*
X232962Y323799D01*
X221233Y328266D02*
X220700Y328799D01*
X219633D01*
X219100Y328266D01*
Y327733D01*
X219633Y327200D01*
X220700D01*
X221233Y326666D01*
Y326133D01*
X220700Y325600D01*
X219633D01*
X219100Y326133D01*
X222299Y328799D02*
Y325600D01*
X223365Y326666D01*
X224432Y325600D01*
Y328799D01*
X227631Y328266D02*
X227097Y328799D01*
X226031D01*
X225498Y328266D01*
Y326133D01*
X226031Y325600D01*
X227097D01*
X227631Y326133D01*
X228697Y328799D02*
Y325600D01*
X230830D01*
X231896Y328799D02*
Y325600D01*
Y326666D01*
X234029Y328799D01*
X232429Y327200D01*
X234029Y325600D01*
X238100Y320600D02*
Y323799D01*
X240233Y320600D01*
Y323799D01*
X243432Y323266D02*
X242899Y323799D01*
X241832D01*
X241299Y323266D01*
Y321133D01*
X241832Y320600D01*
X242899D01*
X243432Y321133D01*
X237600Y325600D02*
Y328799D01*
X239733Y325600D01*
Y328799D01*
X240799Y325600D02*
Y328799D01*
X242399D01*
X242932Y328266D01*
Y327200D01*
X242399Y326666D01*
X240799D01*
X241865D02*
X242932Y325600D01*
X246131Y328266D02*
X245597Y328799D01*
X244531D01*
X243998Y328266D01*
Y327733D01*
X244531Y327200D01*
X245597D01*
X246131Y326666D01*
Y326133D01*
X245597Y325600D01*
X244531D01*
X243998Y326133D01*
X247197Y328799D02*
X249330D01*
X248263D01*
Y325600D01*
X240233Y333266D02*
X239700Y333799D01*
X238633D01*
X238100Y333266D01*
Y331133D01*
X238633Y330600D01*
X239700D01*
X240233Y331133D01*
Y332200D01*
X239166D01*
X228801Y318133D02*
X229334Y317066D01*
X230400Y316000D01*
X231467D01*
X232000Y316533D01*
Y317600D01*
X231467Y318133D01*
X230934D01*
X230400Y317600D01*
Y316000D01*
X238801Y318133D02*
Y316000D01*
X240401D01*
X239867Y317066D01*
Y317600D01*
X240401Y318133D01*
X241467D01*
X242000Y317600D01*
Y316533D01*
X241467Y316000D01*
X231500Y283633D02*
Y281500D01*
X229367Y283633D01*
X228834D01*
X228301Y283100D01*
Y282033D01*
X228834Y281500D01*
X242000Y282000D02*
Y283066D01*
Y282533D01*
X238801D01*
X239334Y282000D01*
X215100Y239600D02*
Y242799D01*
X216700D01*
X217233Y242266D01*
Y241199D01*
X216700Y240666D01*
X215100D01*
X218299Y242799D02*
X220432D01*
X219365D01*
Y239600D01*
X223631Y242266D02*
X223097Y242799D01*
X222031D01*
X221498Y242266D01*
Y240133D01*
X222031Y239600D01*
X223097D01*
X223631Y240133D01*
X276000Y220666D02*
X276533Y221199D01*
X277600D01*
X278133Y220666D01*
Y220133D01*
X277600Y219600D01*
X278133Y219066D01*
Y218533D01*
X277600Y218000D01*
X276533D01*
X276000Y218533D01*
Y219066D01*
X276533Y219600D01*
X276000Y220133D01*
Y220666D01*
X276533Y219600D02*
X277600D01*
X276000Y211199D02*
X278133D01*
Y210666D01*
X276000Y208533D01*
Y208000D01*
X232000D02*
X233066D01*
X232533D01*
Y211199D01*
X232000Y210666D01*
X232133Y218000D02*
X230000D01*
X232133Y220133D01*
Y220666D01*
X231599Y221199D01*
X230533D01*
X230000Y220666D01*
X319334Y296000D02*
X318801Y296533D01*
Y297600D01*
X319334Y298133D01*
X319867D01*
X320401Y297600D01*
X320934Y298133D01*
X321467D01*
X322000Y297600D01*
Y296533D01*
X321467Y296000D01*
X320934D01*
X320401Y296533D01*
X319867Y296000D01*
X319334D01*
X320401Y296533D02*
Y297600D01*
X328801Y296000D02*
Y298133D01*
X329334D01*
X331467Y296000D01*
X332000D01*
Y252000D02*
Y253066D01*
Y252533D01*
X328801D01*
X329334Y252000D01*
X322000Y252133D02*
Y250000D01*
X319867Y252133D01*
X319334D01*
X318801Y251600D01*
Y250533D01*
X319334Y250000D01*
X202600Y309766D02*
X203133Y310299D01*
X204200D01*
X204733Y309766D01*
Y309233D01*
X204200Y308699D01*
X203666D01*
X204200D01*
X204733Y308166D01*
Y307633D01*
X204200Y307100D01*
X203133D01*
X202600Y307633D01*
X205799Y310299D02*
Y308166D01*
X206865Y307100D01*
X207932Y308166D01*
Y310299D01*
X197100Y329766D02*
X197633Y330299D01*
X198699D01*
X199233Y329766D01*
Y329233D01*
X198699Y328699D01*
X198166D01*
X198699D01*
X199233Y328166D01*
Y327633D01*
X198699Y327100D01*
X197633D01*
X197100Y327633D01*
X200299Y330299D02*
Y328166D01*
X201365Y327100D01*
X202432Y328166D01*
Y330299D01*
X162600Y310299D02*
X163133Y310832D01*
X164199D01*
X164733Y310299D01*
Y309766D01*
X164199Y309233D01*
X163666D01*
X164199D01*
X164733Y308699D01*
Y308166D01*
X164199Y307633D01*
X163133D01*
X162600Y308166D01*
X165799Y310832D02*
Y308699D01*
X166865Y307633D01*
X167932Y308699D01*
Y310832D01*
X168998Y307100D02*
X171131D01*
X172197Y307633D02*
Y309766D01*
X173263Y310832D01*
X174329Y309766D01*
Y307633D01*
Y309233D01*
X172197D01*
X175396Y310832D02*
Y308166D01*
X175929Y307633D01*
X176995D01*
X177529Y308166D01*
Y310832D01*
X178595D02*
X180728Y307633D01*
Y310832D02*
X178595Y307633D01*
X210000Y260599D02*
X207867D01*
Y259000D01*
X208934D01*
X207867D01*
Y257400D01*
X211066D02*
X212133D01*
X211599D01*
Y260599D01*
X211066Y260066D01*
X235200Y248000D02*
Y251199D01*
X236800D01*
X237333Y250666D01*
Y249600D01*
X236800Y249066D01*
X235200D01*
X238399Y248000D02*
X239465D01*
X238932D01*
Y251199D01*
X238399Y250666D01*
X241065Y248000D02*
X242131D01*
X241598D01*
Y251199D01*
X241065Y250666D01*
X315735Y202901D02*
Y206100D01*
X317334D01*
X317867Y205566D01*
Y204500D01*
X317334Y203967D01*
X315735D01*
X316801D02*
X317867Y202901D01*
X321066D02*
X318934D01*
X321066Y205033D01*
Y205566D01*
X320533Y206100D01*
X319467D01*
X318934Y205566D01*
X324265Y202901D02*
X322133D01*
X324265Y205033D01*
Y205566D01*
X323732Y206100D01*
X322666D01*
X322133Y205566D01*
X330100Y219268D02*
X326901D01*
Y220867D01*
X327434Y221400D01*
X328500D01*
X329033Y220867D01*
Y219268D01*
Y220334D02*
X330100Y221400D01*
Y224600D02*
Y222467D01*
X327967Y224600D01*
X327434D01*
X326901Y224066D01*
Y223000D01*
X327434Y222467D01*
X330100Y225666D02*
Y226732D01*
Y226199D01*
X326901D01*
X327434Y225666D01*
X312100Y218735D02*
X308900D01*
Y220334D01*
X309434Y220867D01*
X310500D01*
X311033Y220334D01*
Y218735D01*
Y219801D02*
X312100Y220867D01*
Y224066D02*
Y221934D01*
X309967Y224066D01*
X309434D01*
X308900Y223533D01*
Y222467D01*
X309434Y221934D01*
Y225133D02*
X308900Y225666D01*
Y226732D01*
X309434Y227265D01*
X311566D01*
X312100Y226732D01*
Y225666D01*
X311566Y225133D01*
X309434D01*
X205501Y265401D02*
Y268600D01*
X207101D01*
X207634Y268066D01*
Y267000D01*
X207101Y266467D01*
X205501D01*
X208700Y265401D02*
X209767D01*
X209233D01*
Y268600D01*
X208700Y268066D01*
X211366D02*
X211899Y268600D01*
X212965D01*
X213499Y268066D01*
Y265934D01*
X212965Y265401D01*
X211899D01*
X211366Y265934D01*
Y268066D01*
X315200Y301300D02*
Y304499D01*
X316799D01*
X317333Y303966D01*
Y302900D01*
X316799Y302366D01*
X315200D01*
X318399Y301833D02*
X318932Y301300D01*
X319999D01*
X320532Y301833D01*
Y303966D01*
X319999Y304499D01*
X318932D01*
X318399Y303966D01*
Y303433D01*
X318932Y302900D01*
X320532D01*
X295200Y328000D02*
Y331199D01*
X296799D01*
X297333Y330666D01*
Y329599D01*
X296799Y329066D01*
X295200D01*
X298399Y330666D02*
X298932Y331199D01*
X299998D01*
X300532Y330666D01*
Y330133D01*
X299998Y329599D01*
X300532Y329066D01*
Y328533D01*
X299998Y328000D01*
X298932D01*
X298399Y328533D01*
Y329066D01*
X298932Y329599D01*
X298399Y330133D01*
Y330666D01*
X298932Y329599D02*
X299998D01*
X227334Y222901D02*
Y226099D01*
X228934D01*
X229467Y225566D01*
Y224500D01*
X228934Y223967D01*
X227334D01*
X230533Y226099D02*
X232666D01*
Y225566D01*
X230533Y223434D01*
Y222901D01*
X252434Y276367D02*
X251901Y275834D01*
Y274768D01*
X252434Y274235D01*
X254566D01*
X255100Y274768D01*
Y275834D01*
X254566Y276367D01*
X252434Y277434D02*
X251901Y277967D01*
Y279033D01*
X252434Y279566D01*
X252967D01*
X253500Y279033D01*
Y278500D01*
Y279033D01*
X254033Y279566D01*
X254566D01*
X255100Y279033D01*
Y277967D01*
X254566Y277434D01*
X252434Y280633D02*
X251901Y281166D01*
Y282232D01*
X252434Y282765D01*
X252967D01*
X253500Y282232D01*
Y281699D01*
Y282232D01*
X254033Y282765D01*
X254566D01*
X255100Y282232D01*
Y281166D01*
X254566Y280633D01*
X330467Y357566D02*
X329934Y358100D01*
X328868D01*
X328335Y357566D01*
Y355434D01*
X328868Y354901D01*
X329934D01*
X330467Y355434D01*
X331534Y357566D02*
X332067Y358100D01*
X333133D01*
X333666Y357566D01*
Y357033D01*
X333133Y356500D01*
X332600D01*
X333133D01*
X333666Y355967D01*
Y355434D01*
X333133Y354901D01*
X332067D01*
X331534Y355434D01*
X336865Y354901D02*
X334733D01*
X336865Y357033D01*
Y357566D01*
X336332Y358100D01*
X335266D01*
X334733Y357566D01*
X173467Y296600D02*
X172400D01*
X172934D01*
Y293934D01*
X172400Y293401D01*
X171867D01*
X171334Y293934D01*
X176666Y296600D02*
X175600Y296066D01*
X174533Y295000D01*
Y293934D01*
X175066Y293401D01*
X176133D01*
X176666Y293934D01*
Y294467D01*
X176133Y295000D01*
X174533D01*
X200467Y296600D02*
X199400D01*
X199934D01*
Y293934D01*
X199400Y293401D01*
X198867D01*
X198334Y293934D01*
X203666Y296600D02*
X201533D01*
Y295000D01*
X202600Y295533D01*
X203133D01*
X203666Y295000D01*
Y293934D01*
X203133Y293401D01*
X202066D01*
X201533Y293934D01*
X194467Y269099D02*
X193401D01*
X193934D01*
Y266434D01*
X193401Y265900D01*
X192867D01*
X192334Y266434D01*
X197133Y265900D02*
Y269099D01*
X195533Y267500D01*
X197666D01*
X204334Y401600D02*
Y398934D01*
X204867Y398400D01*
X205934D01*
X206467Y398934D01*
Y401600D01*
X209133Y398400D02*
Y401600D01*
X207533Y400000D01*
X209666D01*
X173834Y273099D02*
Y270434D01*
X174367Y269900D01*
X175434D01*
X175967Y270434D01*
Y273099D01*
X177033Y272566D02*
X177566Y273099D01*
X178633D01*
X179166Y272566D01*
Y272033D01*
X178633Y271500D01*
X178100D01*
X178633D01*
X179166Y270967D01*
Y270434D01*
X178633Y269900D01*
X177566D01*
X177033Y270434D01*
X176900Y245299D02*
Y242633D01*
X177433Y242100D01*
X178499D01*
X179033Y242633D01*
Y245299D01*
X182232Y242100D02*
X180099D01*
X182232Y244233D01*
Y244766D01*
X181699Y245299D01*
X180632D01*
X180099Y244766D01*
X261401Y267867D02*
X264066D01*
X264599Y268401D01*
Y269467D01*
X264066Y270000D01*
X261401D01*
X264599Y271066D02*
Y272133D01*
Y271600D01*
X261401D01*
X261934Y271066D01*
X304576Y341365D02*
Y344564D01*
X306176D01*
X306709Y344031D01*
Y342965D01*
X306176Y342431D01*
X304576D01*
X305642D02*
X306709Y341365D01*
X307775D02*
X308841D01*
X308308D01*
Y344564D01*
X307775Y344031D01*
X310441Y341898D02*
X310974Y341365D01*
X312040D01*
X312574Y341898D01*
Y344031D01*
X312040Y344564D01*
X310974D01*
X310441Y344031D01*
Y343498D01*
X310974Y342965D01*
X312574D01*
X299576Y355865D02*
Y359064D01*
X301176D01*
X301709Y358531D01*
Y357465D01*
X301176Y356931D01*
X299576D01*
X300642D02*
X301709Y355865D01*
X302775D02*
X303841D01*
X303308D01*
Y359064D01*
X302775Y358531D01*
X305441D02*
X305974Y359064D01*
X307040D01*
X307574Y358531D01*
Y357998D01*
X307040Y357465D01*
X307574Y356931D01*
Y356398D01*
X307040Y355865D01*
X305974D01*
X305441Y356398D01*
Y356931D01*
X305974Y357465D01*
X305441Y357998D01*
Y358531D01*
X305974Y357465D02*
X307040D01*
X294576Y341365D02*
Y344564D01*
X296176D01*
X296709Y344031D01*
Y342965D01*
X296176Y342431D01*
X294576D01*
X295642D02*
X296709Y341365D01*
X297775D02*
X298841D01*
X298308D01*
Y344564D01*
X297775Y344031D01*
X300441Y344564D02*
X302573D01*
Y344031D01*
X300441Y341898D01*
Y341365D01*
X328701Y340900D02*
Y344099D01*
X330301D01*
X330834Y343566D01*
Y342500D01*
X330301Y341967D01*
X328701D01*
X329768D02*
X330834Y340900D01*
X331900D02*
X332967D01*
X332433D01*
Y344099D01*
X331900Y343566D01*
X336699Y344099D02*
X335632Y343566D01*
X334566Y342500D01*
Y341434D01*
X335099Y340900D01*
X336165D01*
X336699Y341434D01*
Y341967D01*
X336165Y342500D01*
X334566D01*
X212501Y228901D02*
Y232100D01*
X214101D01*
X214634Y231566D01*
Y230500D01*
X214101Y229967D01*
X212501D01*
X213568D02*
X214634Y228901D01*
X215700D02*
X216767D01*
X216233D01*
Y232100D01*
X215700Y231566D01*
X220499Y232100D02*
X218366D01*
Y230500D01*
X219432Y231033D01*
X219966D01*
X220499Y230500D01*
Y229434D01*
X219966Y228901D01*
X218899D01*
X218366Y229434D01*
X219600Y306501D02*
X216401D01*
Y308101D01*
X216934Y308634D01*
X218000D01*
X218533Y308101D01*
Y306501D01*
Y307568D02*
X219600Y308634D01*
Y309700D02*
Y310767D01*
Y310233D01*
X216401D01*
X216934Y309700D01*
X219600Y313966D02*
X216401D01*
X218000Y312366D01*
Y314499D01*
X154100Y296501D02*
X150900D01*
Y298101D01*
X151434Y298634D01*
X152500D01*
X153033Y298101D01*
Y296501D01*
Y297568D02*
X154100Y298634D01*
Y299700D02*
Y300767D01*
Y300233D01*
X150900D01*
X151434Y299700D01*
Y302366D02*
X150900Y302899D01*
Y303965D01*
X151434Y304499D01*
X151967D01*
X152500Y303965D01*
Y303432D01*
Y303965D01*
X153033Y304499D01*
X153566D01*
X154100Y303965D01*
Y302899D01*
X153566Y302366D01*
X196501Y200400D02*
Y203600D01*
X198101D01*
X198634Y203066D01*
Y202000D01*
X198101Y201467D01*
X196501D01*
X197568D02*
X198634Y200400D01*
X199700D02*
X200767D01*
X200233D01*
Y203600D01*
X199700Y203066D01*
X204499Y200400D02*
X202366D01*
X204499Y202533D01*
Y203066D01*
X203966Y203600D01*
X202899D01*
X202366Y203066D01*
X212534Y222400D02*
Y225600D01*
X214134D01*
X214667Y225066D01*
Y224000D01*
X214134Y223467D01*
X212534D01*
X213601D02*
X214667Y222400D01*
X215733D02*
X216800D01*
X216267D01*
Y225600D01*
X215733Y225066D01*
X218399Y222400D02*
X219465D01*
X218932D01*
Y225600D01*
X218399Y225066D01*
X177100Y201001D02*
X173900D01*
Y202601D01*
X174434Y203134D01*
X175500D01*
X176033Y202601D01*
Y201001D01*
Y202068D02*
X177100Y203134D01*
Y204200D02*
Y205267D01*
Y204733D01*
X173900D01*
X174434Y204200D01*
Y206866D02*
X173900Y207399D01*
Y208466D01*
X174434Y208999D01*
X176566D01*
X177100Y208466D01*
Y207399D01*
X176566Y206866D01*
X174434D01*
X196334Y206400D02*
Y209599D01*
X197934D01*
X198467Y209066D01*
Y208000D01*
X197934Y207467D01*
X196334D01*
X197400D02*
X198467Y206400D01*
X199533Y206934D02*
X200066Y206400D01*
X201133D01*
X201666Y206934D01*
Y209066D01*
X201133Y209599D01*
X200066D01*
X199533Y209066D01*
Y208533D01*
X200066Y208000D01*
X201666D01*
X212334Y215900D02*
Y219099D01*
X213934D01*
X214467Y218566D01*
Y217500D01*
X213934Y216967D01*
X212334D01*
X213401D02*
X214467Y215900D01*
X215533Y218566D02*
X216066Y219099D01*
X217133D01*
X217666Y218566D01*
Y218033D01*
X217133Y217500D01*
X217666Y216967D01*
Y216434D01*
X217133Y215900D01*
X216066D01*
X215533Y216434D01*
Y216967D01*
X216066Y217500D01*
X215533Y218033D01*
Y218566D01*
X216066Y217500D02*
X217133D01*
X190334Y212401D02*
Y215599D01*
X191934D01*
X192467Y215066D01*
Y214000D01*
X191934Y213467D01*
X190334D01*
X191401D02*
X192467Y212401D01*
X193533Y215599D02*
X195666D01*
Y215066D01*
X193533Y212934D01*
Y212401D01*
X166600Y283334D02*
X163400D01*
Y284934D01*
X163934Y285467D01*
X165000D01*
X165533Y284934D01*
Y283334D01*
Y284401D02*
X166600Y285467D01*
X163400Y288666D02*
X163934Y287599D01*
X165000Y286533D01*
X166066D01*
X166600Y287066D01*
Y288133D01*
X166066Y288666D01*
X165533D01*
X165000Y288133D01*
Y286533D01*
X148334Y222400D02*
Y225600D01*
X149934D01*
X150467Y225066D01*
Y224000D01*
X149934Y223467D01*
X148334D01*
X149400D02*
X150467Y222400D01*
X153666Y225600D02*
X151533D01*
Y224000D01*
X152600Y224533D01*
X153133D01*
X153666Y224000D01*
Y222934D01*
X153133Y222400D01*
X152066D01*
X151533Y222934D01*
X148334Y215900D02*
Y219099D01*
X149934D01*
X150467Y218566D01*
Y217500D01*
X149934Y216967D01*
X148334D01*
X149400D02*
X150467Y215900D01*
X153133D02*
Y219099D01*
X151533Y217500D01*
X153666D01*
X148381Y228901D02*
Y232100D01*
X149981D01*
X150514Y231566D01*
Y230500D01*
X149981Y229967D01*
X148381D01*
X149448D02*
X150514Y228901D01*
X151580Y231566D02*
X152114Y232100D01*
X153180D01*
X153713Y231566D01*
Y231033D01*
X153180Y230500D01*
X152647D01*
X153180D01*
X153713Y229967D01*
Y229434D01*
X153180Y228901D01*
X152114D01*
X151580Y229434D01*
X255100Y291334D02*
X251901D01*
Y292934D01*
X252434Y293467D01*
X253500D01*
X254033Y292934D01*
Y291334D01*
Y292401D02*
X255100Y293467D01*
Y296666D02*
Y294533D01*
X252967Y296666D01*
X252434D01*
X251901Y296133D01*
Y295066D01*
X252434Y294533D01*
X255100Y301367D02*
X251901D01*
Y302967D01*
X252434Y303500D01*
X253500D01*
X254033Y302967D01*
Y301367D01*
Y302434D02*
X255100Y303500D01*
Y304566D02*
Y305633D01*
Y305100D01*
X251901D01*
X252434Y304566D01*
X157834Y315401D02*
Y318600D01*
X159434D01*
X159967Y318066D01*
Y317000D01*
X159434Y316467D01*
X157834D01*
X163166Y318600D02*
X162100Y318066D01*
X161033Y317000D01*
Y315934D01*
X161566Y315401D01*
X162633D01*
X163166Y315934D01*
Y316467D01*
X162633Y317000D01*
X161033D01*
X145200Y268000D02*
Y271199D01*
X146800D01*
X147333Y270666D01*
Y269600D01*
X146800Y269066D01*
X145200D01*
X149998Y268000D02*
Y271199D01*
X148399Y269600D01*
X150532D01*
X187834Y315401D02*
Y318600D01*
X189434D01*
X189967Y318066D01*
Y317000D01*
X189434Y316467D01*
X187834D01*
X191033Y318066D02*
X191566Y318600D01*
X192633D01*
X193166Y318066D01*
Y317533D01*
X192633Y317000D01*
X192099D01*
X192633D01*
X193166Y316467D01*
Y315934D01*
X192633Y315401D01*
X191566D01*
X191033Y315934D01*
X246834Y310900D02*
Y314100D01*
X248434D01*
X248967Y313566D01*
Y312500D01*
X248434Y311967D01*
X246834D01*
X252166Y310900D02*
X250033D01*
X252166Y313033D01*
Y313566D01*
X251633Y314100D01*
X250566D01*
X250033Y313566D01*
X288867Y221901D02*
Y225099D01*
X290467D01*
X291000Y224566D01*
Y223500D01*
X290467Y222967D01*
X288867D01*
X292066Y221901D02*
X293133D01*
X292600D01*
Y225099D01*
X292066Y224566D01*
X246934Y404800D02*
Y401601D01*
X249067D01*
X250133Y404266D02*
X250666Y404800D01*
X251733D01*
X252266Y404266D01*
Y403733D01*
X251733Y403200D01*
X252266Y402667D01*
Y402134D01*
X251733Y401601D01*
X250666D01*
X250133Y402134D01*
Y402667D01*
X250666Y403200D01*
X250133Y403733D01*
Y404266D01*
X250666Y403200D02*
X251733D01*
X244834Y389599D02*
Y386401D01*
X246967D01*
X248033Y389599D02*
X250166D01*
Y389066D01*
X248033Y386934D01*
Y386401D01*
X180334Y397099D02*
Y393900D01*
X182467D01*
X185666Y397099D02*
X183533D01*
Y395500D01*
X184599Y396033D01*
X185133D01*
X185666Y395500D01*
Y394434D01*
X185133Y393900D01*
X184066D01*
X183533Y394434D01*
X215334Y390100D02*
Y386900D01*
X217467D01*
X220133D02*
Y390100D01*
X218533Y388500D01*
X220666D01*
X235834Y373600D02*
Y370401D01*
X237967D01*
X239033Y373066D02*
X239566Y373600D01*
X240633D01*
X241166Y373066D01*
Y372533D01*
X240633Y372000D01*
X240100D01*
X240633D01*
X241166Y371467D01*
Y370934D01*
X240633Y370401D01*
X239566D01*
X239033Y370934D01*
X166334Y245099D02*
Y241900D01*
X168467D01*
X171666D02*
X169533D01*
X171666Y244033D01*
Y244566D01*
X171133Y245099D01*
X170066D01*
X169533Y244566D01*
X199867Y275099D02*
Y271901D01*
X202000D01*
X203066D02*
X204133D01*
X203600D01*
Y275099D01*
X203066Y274566D01*
X148833Y412699D02*
X147766D01*
X148300D01*
Y410033D01*
X147766Y409500D01*
X147233D01*
X146700Y410033D01*
X149899Y412166D02*
X150432Y412699D01*
X151498D01*
X152032Y412166D01*
Y411633D01*
X151498Y411099D01*
X150965D01*
X151498D01*
X152032Y410566D01*
Y410033D01*
X151498Y409500D01*
X150432D01*
X149899Y410033D01*
X209967Y294099D02*
X208900D01*
X209434D01*
Y291434D01*
X208900Y290900D01*
X208367D01*
X207834Y291434D01*
X213166Y290900D02*
X211033D01*
X213166Y293033D01*
Y293566D01*
X212633Y294099D01*
X211566D01*
X211033Y293566D01*
X165000Y294099D02*
X163934D01*
X164467D01*
Y291434D01*
X163934Y290900D01*
X163400D01*
X162867Y291434D01*
X166066Y290900D02*
X167133D01*
X166600D01*
Y294099D01*
X166066Y293566D01*
X290401Y252099D02*
X288268D01*
Y250500D01*
X289334D01*
X288268D01*
Y248901D01*
X291467Y252099D02*
Y248901D01*
X293066D01*
X293600Y249434D01*
Y249967D01*
X293066Y250500D01*
X291467D01*
X293066D01*
X293600Y251033D01*
Y251566D01*
X293066Y252099D01*
X291467D01*
X294666Y248901D02*
X295732D01*
X295199D01*
Y252099D01*
X294666Y251566D01*
X205834Y300099D02*
Y296901D01*
X207434D01*
X207967Y297434D01*
Y299566D01*
X207434Y300099D01*
X205834D01*
X211166Y296901D02*
X209033D01*
X211166Y299033D01*
Y299566D01*
X210633Y300099D01*
X209566D01*
X209033Y299566D01*
X165367Y300099D02*
Y296901D01*
X166967D01*
X167500Y297434D01*
Y299566D01*
X166967Y300099D01*
X165367D01*
X168566Y296901D02*
X169633D01*
X169099D01*
Y300099D01*
X168566Y299566D01*
X245067Y409066D02*
X244534Y409599D01*
X243468D01*
X242935Y409066D01*
Y406934D01*
X243468Y406400D01*
X244534D01*
X245067Y406934D01*
X248266Y406400D02*
X246134D01*
X248266Y408533D01*
Y409066D01*
X247733Y409599D01*
X246667D01*
X246134Y409066D01*
X251465Y409599D02*
X250399Y409066D01*
X249333Y408000D01*
Y406934D01*
X249866Y406400D01*
X250932D01*
X251465Y406934D01*
Y407467D01*
X250932Y408000D01*
X249333D01*
X234667Y413566D02*
X234134Y414100D01*
X233068D01*
X232535Y413566D01*
Y411434D01*
X233068Y410900D01*
X234134D01*
X234667Y411434D01*
X237866Y410900D02*
X235734D01*
X237866Y413033D01*
Y413566D01*
X237333Y414100D01*
X236267D01*
X235734Y413566D01*
X241065Y414100D02*
X238933D01*
Y412500D01*
X239999Y413033D01*
X240532D01*
X241065Y412500D01*
Y411434D01*
X240532Y410900D01*
X239466D01*
X238933Y411434D01*
X234567Y408566D02*
X234034Y409099D01*
X232968D01*
X232435Y408566D01*
Y406434D01*
X232968Y405900D01*
X234034D01*
X234567Y406434D01*
X237766Y405900D02*
X235634D01*
X237766Y408033D01*
Y408566D01*
X237233Y409099D01*
X236167D01*
X235634Y408566D01*
X238833D02*
X239366Y409099D01*
X240432D01*
X240965Y408566D01*
Y408033D01*
X240432Y407500D01*
X239899D01*
X240432D01*
X240965Y406967D01*
Y406434D01*
X240432Y405900D01*
X239366D01*
X238833Y406434D01*
X178901Y384566D02*
X178367Y385100D01*
X177301D01*
X176768Y384566D01*
Y382434D01*
X177301Y381901D01*
X178367D01*
X178901Y382434D01*
X182099Y381901D02*
X179967D01*
X182099Y384033D01*
Y384566D01*
X181566Y385100D01*
X180500D01*
X179967Y384566D01*
X183166Y381901D02*
X184232D01*
X183699D01*
Y385100D01*
X183166Y384566D01*
X190867D02*
X190334Y385100D01*
X189268D01*
X188735Y384566D01*
Y382434D01*
X189268Y381901D01*
X190334D01*
X190867Y382434D01*
X194066Y381901D02*
X191934D01*
X194066Y384033D01*
Y384566D01*
X193533Y385100D01*
X192467D01*
X191934Y384566D01*
X195133D02*
X195666Y385100D01*
X196732D01*
X197265Y384566D01*
Y382434D01*
X196732Y381901D01*
X195666D01*
X195133Y382434D01*
Y384566D01*
X193634Y396566D02*
X193101Y397099D01*
X192034D01*
X191501Y396566D01*
Y394434D01*
X192034Y393900D01*
X193101D01*
X193634Y394434D01*
X194700Y393900D02*
X195767D01*
X195233D01*
Y397099D01*
X194700Y396566D01*
X197366Y394434D02*
X197899Y393900D01*
X198966D01*
X199499Y394434D01*
Y396566D01*
X198966Y397099D01*
X197899D01*
X197366Y396566D01*
Y396033D01*
X197899Y395500D01*
X199499D01*
X211434Y375134D02*
X210900Y374601D01*
Y373534D01*
X211434Y373001D01*
X213566D01*
X214100Y373534D01*
Y374601D01*
X213566Y375134D01*
X214100Y376200D02*
Y377267D01*
Y376733D01*
X210900D01*
X211434Y376200D01*
Y378866D02*
X210900Y379399D01*
Y380466D01*
X211434Y380999D01*
X211967D01*
X212500Y380466D01*
X213033Y380999D01*
X213566D01*
X214100Y380466D01*
Y379399D01*
X213566Y378866D01*
X213033D01*
X212500Y379399D01*
X211967Y378866D01*
X211434D01*
X212500Y379399D02*
Y380466D01*
X231634Y368066D02*
X231101Y368600D01*
X230034D01*
X229501Y368066D01*
Y365934D01*
X230034Y365401D01*
X231101D01*
X231634Y365934D01*
X232700Y365401D02*
X233767D01*
X233233D01*
Y368600D01*
X232700Y368066D01*
X235366Y368600D02*
X237499D01*
Y368066D01*
X235366Y365934D01*
Y365401D01*
X241634Y368066D02*
X241101Y368600D01*
X240035D01*
X239501Y368066D01*
Y365934D01*
X240035Y365401D01*
X241101D01*
X241634Y365934D01*
X242700Y365401D02*
X243767D01*
X243233D01*
Y368600D01*
X242700Y368066D01*
X247499Y368600D02*
X246432Y368066D01*
X245366Y367000D01*
Y365934D01*
X245899Y365401D01*
X246966D01*
X247499Y365934D01*
Y366467D01*
X246966Y367000D01*
X245366D01*
X226134Y389566D02*
X225601Y390100D01*
X224535D01*
X224001Y389566D01*
Y387434D01*
X224535Y386900D01*
X225601D01*
X226134Y387434D01*
X227200Y386900D02*
X228267D01*
X227733D01*
Y390100D01*
X227200Y389566D01*
X231999Y390100D02*
X229866D01*
Y388500D01*
X230932Y389033D01*
X231466D01*
X231999Y388500D01*
Y387434D01*
X231466Y386900D01*
X230399D01*
X229866Y387434D01*
X236634Y393066D02*
X236101Y393600D01*
X235034D01*
X234501Y393066D01*
Y390934D01*
X235034Y390401D01*
X236101D01*
X236634Y390934D01*
X237700Y390401D02*
X238767D01*
X238233D01*
Y393600D01*
X237700Y393066D01*
X241966Y390401D02*
Y393600D01*
X240366Y392000D01*
X242499D01*
X330734Y352366D02*
X330201Y352900D01*
X329134D01*
X328601Y352366D01*
Y350234D01*
X329134Y349700D01*
X330201D01*
X330734Y350234D01*
X331800Y349700D02*
X332867D01*
X332333D01*
Y352900D01*
X331800Y352366D01*
X334466D02*
X334999Y352900D01*
X336066D01*
X336599Y352366D01*
Y351833D01*
X336066Y351300D01*
X335532D01*
X336066D01*
X336599Y350767D01*
Y350234D01*
X336066Y349700D01*
X334999D01*
X334466Y350234D01*
X168134Y213566D02*
X167601Y214100D01*
X166534D01*
X166001Y213566D01*
Y211434D01*
X166534Y210900D01*
X167601D01*
X168134Y211434D01*
X169200Y210900D02*
X170267D01*
X169733D01*
Y214100D01*
X169200Y213566D01*
X173999Y210900D02*
X171866D01*
X173999Y213033D01*
Y213566D01*
X173466Y214100D01*
X172399D01*
X171866Y213566D01*
X192934Y273167D02*
X192401Y272634D01*
Y271568D01*
X192934Y271035D01*
X195066D01*
X195599Y271568D01*
Y272634D01*
X195066Y273167D01*
X195599Y274233D02*
Y275300D01*
Y274767D01*
X192401D01*
X192934Y274233D01*
X195599Y276899D02*
Y277965D01*
Y277432D01*
X192401D01*
X192934Y276899D01*
X198434Y256634D02*
X197900Y256101D01*
Y255034D01*
X198434Y254501D01*
X200566D01*
X201099Y255034D01*
Y256101D01*
X200566Y256634D01*
X201099Y257700D02*
Y258767D01*
Y258233D01*
X197900D01*
X198434Y257700D01*
Y260366D02*
X197900Y260899D01*
Y261965D01*
X198434Y262499D01*
X200566D01*
X201099Y261965D01*
Y260899D01*
X200566Y260366D01*
X198434D01*
X199967Y250066D02*
X199434Y250600D01*
X198367D01*
X197834Y250066D01*
Y247934D01*
X198367Y247400D01*
X199434D01*
X199967Y247934D01*
X201033D02*
X201566Y247400D01*
X202633D01*
X203166Y247934D01*
Y250066D01*
X202633Y250600D01*
X201566D01*
X201033Y250066D01*
Y249533D01*
X201566Y249000D01*
X203166D01*
X150467Y240066D02*
X149934Y240599D01*
X148867D01*
X148334Y240066D01*
Y237934D01*
X148867Y237401D01*
X149934D01*
X150467Y237934D01*
X151533Y240066D02*
X152066Y240599D01*
X153133D01*
X153666Y240066D01*
Y239533D01*
X153133Y239000D01*
X153666Y238467D01*
Y237934D01*
X153133Y237401D01*
X152066D01*
X151533Y237934D01*
Y238467D01*
X152066Y239000D01*
X151533Y239533D01*
Y240066D01*
X152066Y239000D02*
X153133D01*
X192934Y288967D02*
X192401Y288434D01*
Y287367D01*
X192934Y286834D01*
X195066D01*
X195599Y287367D01*
Y288434D01*
X195066Y288967D01*
X192401Y290033D02*
Y292166D01*
X192934D01*
X195066Y290033D01*
X195599D01*
X282967Y267566D02*
X282434Y268099D01*
X281367D01*
X280834Y267566D01*
Y265434D01*
X281367Y264900D01*
X282434D01*
X282967Y265434D01*
X286166Y268099D02*
X285100Y267566D01*
X284033Y266500D01*
Y265434D01*
X284566Y264900D01*
X285633D01*
X286166Y265434D01*
Y265967D01*
X285633Y266500D01*
X284033D01*
X280967Y251566D02*
X280434Y252099D01*
X279367D01*
X278834Y251566D01*
Y249434D01*
X279367Y248901D01*
X280434D01*
X280967Y249434D01*
X284166Y252099D02*
X282033D01*
Y250500D01*
X283100Y251033D01*
X283633D01*
X284166Y250500D01*
Y249434D01*
X283633Y248901D01*
X282566D01*
X282033Y249434D01*
X266967Y316066D02*
X266434Y316599D01*
X265367D01*
X264834Y316066D01*
Y313934D01*
X265367Y313401D01*
X266434D01*
X266967Y313934D01*
X269633Y313401D02*
Y316599D01*
X268033Y315000D01*
X270166D01*
X299434Y299967D02*
X298901Y299434D01*
Y298367D01*
X299434Y297834D01*
X301566D01*
X302099Y298367D01*
Y299434D01*
X301566Y299967D01*
X299434Y301033D02*
X298901Y301566D01*
Y302633D01*
X299434Y303166D01*
X299967D01*
X300500Y302633D01*
Y302099D01*
Y302633D01*
X301033Y303166D01*
X301566D01*
X302099Y302633D01*
Y301566D01*
X301566Y301033D01*
X270467Y257566D02*
X269934Y258100D01*
X268867D01*
X268334Y257566D01*
Y255434D01*
X268867Y254901D01*
X269934D01*
X270467Y255434D01*
X273666Y254901D02*
X271533D01*
X273666Y257033D01*
Y257566D01*
X273133Y258100D01*
X272066D01*
X271533Y257566D01*
X253500Y335566D02*
X252967Y336100D01*
X251901D01*
X251367Y335566D01*
Y333434D01*
X251901Y332901D01*
X252967D01*
X253500Y333434D01*
X254566Y332901D02*
X255633D01*
X255100D01*
Y336100D01*
X254566Y335566D01*
M02*
