M48
;Layer_Color=9474304
;FILE_FORMAT=2:5
INCH,LZ
;TYPE=PLATED
T1F00S00C0.00787
T2F00S00C0.00984
T3F00S00C0.01181
T4F00S00C0.02000
T5F00S00C0.03543
T6F00S00C0.06693
T7F00S00C0.11811
%
T01
X0187Y0219
X01995Y02175
X01905Y0244
X01885Y02425
X0181Y02735
X0176376Y0278984
Y0281937
Y028489
X01685Y0284
X01695Y0276
X0183672Y0282807
X0192366Y0282634
Y0279866
X0254181Y0284181
X0254Y0287968
X0268Y02895
Y0293
X0278343Y0280842
X02775Y0269
X0277563Y0266
X02735
X02695
X02675Y0268
X0305Y02785
X0312Y0288
X0270484Y0314308
X02735Y0328
X0276619Y0330705
X0274812Y0334671
X0274Y0339
X0268903Y0371903
X02755Y03895
X0273364Y0402349
X02705Y04055
X0266Y0406
X0262097Y0406029
X0258463Y0404959
X0254984Y0403463
X0253Y03985
X0256Y0414
X02585Y0417
X0293Y0411
X0305Y04175
X03045Y0402
X031Y0375
X03065Y0355
X0313Y0344
X0331Y0347
X03485Y03715
T02
X026Y03896
X02627
X02654
X0268
Y03924
Y03949
X02654
Y03924
X02627
Y03949
Y03975
X02654
X0268
X026
Y03949
Y03924
T03
X0184043Y0229547
X0186012Y0231516
X018798Y0229547
Y0233484
X0184043
X0199Y02335
X0210352Y0244352
X021292Y024692
X0235Y0282175
X0272Y0293
X02735Y02965
X0309453Y0297547
X02915Y0262
X02765Y0256
X02665Y02615
X0196Y03035
X0193
X0183
X018
X0161547Y0279953
T04
X0259Y03435
X0257Y0346
X0258Y03775
X02565Y038
T05
X0345Y02
Y021
Y022
Y023
Y024
Y025
Y026
Y027
Y028
Y029
Y03
Y031
X0355
X0365
Y03
Y029
Y028
Y027
Y026
Y025
Y024
Y023
Y022
X0375
Y023
Y024
Y025
Y026
Y027
Y028
Y029
Y03
Y031
X0355Y03
Y029
Y028
Y027
Y026
Y025
Y024
Y023
Y022
Y021
Y02
X033Y026
X032
Y027
X033
Y028
X032
Y029
X033
X031Y024
X03
X029
X028
X027
X026
X025
X024
Y022
Y021
X025
Y022
X026
Y021
X027
Y022
X03
Y021
X024Y027
X023
X022
X023Y029
X024
Y03
X023
Y031
X024
X015Y026
Y025
X017Y032
X018
X02
X021
X03
X031
X032
X033
X0345
Y033
Y034
X0355
X0365
Y033
Y032
X0375
Y033
Y034
Y035
X0365
Y036
X0375
Y037
X0365
Y038
X0375
Y039
X0365
Y04
X0375
Y041
X0365
X0355Y033
Y032
T06
X0151461Y0381461
Y0401539
X01615Y03915
X0171539Y0381461
Y0401539
T07
X0370079Y0204724
X0153543
Y0425197
X0370079
M30
