G04*
G04 #@! TF.GenerationSoftware,Altium Limited,Altium Designer,20.1.11 (218)*
G04*
G04 Layer_Color=16711935*
%FSLAX25Y25*%
%MOIN*%
G70*
G04*
G04 #@! TF.SameCoordinates,CF1E9CB3-0BC2-4E6C-9A0D-545EBE8527ED*
G04*
G04*
G04 #@! TF.FilePolarity,Negative*
G04*
G01*
G75*
%ADD46R,0.06706X0.06706*%
%ADD47C,0.06706*%
%ADD48R,0.06706X0.06706*%
%ADD49R,0.09461X0.09461*%
%ADD50C,0.09461*%
%ADD51C,0.02572*%
%ADD52C,0.02769*%
%ADD53C,0.03300*%
%ADD54C,0.14580*%
%ADD55C,0.03162*%
%ADD102R,0.03950X0.07099*%
G36*
X269500Y388000D02*
X258500D01*
Y399000D01*
X269500D01*
Y388000D01*
D02*
G37*
D46*
X220000Y270000D02*
D03*
X240000Y210000D02*
D03*
Y240000D02*
D03*
X180000Y320000D02*
D03*
X200000D02*
D03*
X330000D02*
D03*
D47*
X230000Y270000D02*
D03*
X240000D02*
D03*
X300000Y210000D02*
D03*
X230000Y290000D02*
D03*
X240000Y300000D02*
D03*
X230000D02*
D03*
X240000Y310000D02*
D03*
X230000D02*
D03*
X375000Y220000D02*
D03*
X365000D02*
D03*
X375000Y230000D02*
D03*
X365000D02*
D03*
X375000Y240000D02*
D03*
X365000D02*
D03*
X375000Y250000D02*
D03*
X365000D02*
D03*
X375000Y260000D02*
D03*
X365000D02*
D03*
X375000Y270000D02*
D03*
X365000D02*
D03*
X375000Y280000D02*
D03*
X365000D02*
D03*
X375000Y290000D02*
D03*
X365000D02*
D03*
X375000Y300000D02*
D03*
X365000D02*
D03*
X375000Y310000D02*
D03*
X365000D02*
D03*
X375000Y320000D02*
D03*
X365000D02*
D03*
X375000Y330000D02*
D03*
X365000D02*
D03*
X375000Y340000D02*
D03*
X365000D02*
D03*
X375000Y350000D02*
D03*
X365000D02*
D03*
X375000Y360000D02*
D03*
X365000D02*
D03*
X375000Y370000D02*
D03*
X365000D02*
D03*
X375000Y380000D02*
D03*
X365000D02*
D03*
X375000Y390000D02*
D03*
X365000D02*
D03*
X375000Y400000D02*
D03*
X365000D02*
D03*
X375000Y410000D02*
D03*
X365000D02*
D03*
X345000Y340000D02*
D03*
X355000D02*
D03*
X345000Y330000D02*
D03*
X355000D02*
D03*
X345000Y320000D02*
D03*
X355000D02*
D03*
X345000Y310000D02*
D03*
X355000D02*
D03*
X345000Y300000D02*
D03*
X355000D02*
D03*
X345000Y290000D02*
D03*
X355000D02*
D03*
X345000Y280000D02*
D03*
X355000D02*
D03*
X345000Y270000D02*
D03*
X355000D02*
D03*
X345000Y260000D02*
D03*
X355000D02*
D03*
X345000Y250000D02*
D03*
X355000D02*
D03*
X345000Y240000D02*
D03*
X355000D02*
D03*
X345000Y230000D02*
D03*
X355000D02*
D03*
X345000Y220000D02*
D03*
X355000D02*
D03*
X345000Y210000D02*
D03*
X355000D02*
D03*
X345000Y200000D02*
D03*
X355000D02*
D03*
X150000Y260000D02*
D03*
X240000Y220000D02*
D03*
X250000Y210000D02*
D03*
Y220000D02*
D03*
X260000Y210000D02*
D03*
Y220000D02*
D03*
X270000Y210000D02*
D03*
Y220000D02*
D03*
X320000Y260000D02*
D03*
X330000Y270000D02*
D03*
X320000D02*
D03*
X330000Y280000D02*
D03*
X320000D02*
D03*
X330000Y290000D02*
D03*
X320000D02*
D03*
X310000Y240000D02*
D03*
X300000D02*
D03*
X290000D02*
D03*
X280000D02*
D03*
X270000D02*
D03*
X260000D02*
D03*
X250000D02*
D03*
X170000Y320000D02*
D03*
X210000D02*
D03*
X320000D02*
D03*
X310000D02*
D03*
X300000D02*
D03*
D48*
Y220000D02*
D03*
X240000Y290000D02*
D03*
X150000Y250000D02*
D03*
X330000Y260000D02*
D03*
D49*
X161500Y391500D02*
D03*
D50*
X171539Y381461D02*
D03*
Y401539D02*
D03*
X151461D02*
D03*
Y381461D02*
D03*
D51*
X270484Y314308D02*
D03*
X313000Y344000D02*
D03*
X348500Y371500D02*
D03*
X310000Y375000D02*
D03*
X305000Y417500D02*
D03*
X304500Y402000D02*
D03*
X276619Y330705D02*
D03*
X273500Y328000D02*
D03*
X274812Y334671D02*
D03*
X274000Y339000D02*
D03*
X275500Y389500D02*
D03*
X273364Y402349D02*
D03*
X268903Y371903D02*
D03*
X254984Y403463D02*
D03*
X253000Y398500D02*
D03*
X258463Y404959D02*
D03*
X262097Y406029D02*
D03*
X254000Y287968D02*
D03*
X293000Y411000D02*
D03*
X266000Y406000D02*
D03*
X258500Y417000D02*
D03*
X256000Y414000D02*
D03*
X331000Y347000D02*
D03*
X306500Y355000D02*
D03*
X270500Y405500D02*
D03*
X267500Y268000D02*
D03*
X277500Y269000D02*
D03*
X269500Y266000D02*
D03*
X277563D02*
D03*
X254181Y284181D02*
D03*
X278343Y280842D02*
D03*
X273500Y266000D02*
D03*
D52*
X260000Y394900D02*
D03*
X262700D02*
D03*
X265400D02*
D03*
X268000D02*
D03*
X260000Y392400D02*
D03*
X262700D02*
D03*
X265400D02*
D03*
X268000D02*
D03*
X260000Y389600D02*
D03*
X262700D02*
D03*
X265400D02*
D03*
X268000D02*
D03*
Y397500D02*
D03*
X265400D02*
D03*
X262700D02*
D03*
X260000D02*
D03*
X176376Y281937D02*
D03*
Y284890D02*
D03*
Y278984D02*
D03*
X186012Y231516D02*
D03*
X187980Y229547D02*
D03*
Y233484D02*
D03*
X184043D02*
D03*
Y229547D02*
D03*
D53*
X257000Y346000D02*
D03*
X259000Y343500D02*
D03*
D54*
X370079Y425197D02*
D03*
Y204724D02*
D03*
X153543D02*
D03*
Y425197D02*
D03*
D55*
X180000Y303500D02*
D03*
X235000Y282175D02*
D03*
X183000Y303500D02*
D03*
X309453Y297547D02*
D03*
D102*
X333799Y330000D02*
D03*
X326200D02*
D03*
X330000D02*
D03*
Y300000D02*
D03*
X326200D02*
D03*
X333799D02*
D03*
X260000Y200000D02*
D03*
X263800D02*
D03*
X256201D02*
D03*
M02*
