G04*
G04 #@! TF.GenerationSoftware,Altium Limited,Altium Designer,20.1.11 (218)*
G04*
G04 Layer_Physical_Order=3*
G04 Layer_Color=16440176*
%FSLAX25Y25*%
%MOIN*%
G70*
G04*
G04 #@! TF.SameCoordinates,CF1E9CB3-0BC2-4E6C-9A0D-545EBE8527ED*
G04*
G04*
G04 #@! TF.FilePolarity,Positive*
G04*
G01*
G75*
%ADD95C,0.08661*%
%ADD96C,0.01772*%
%ADD98C,0.01968*%
%ADD100C,0.13780*%
G36*
X291339Y411908D02*
X291224Y411736D01*
X291077Y411000D01*
X291224Y410264D01*
X291339Y410092D01*
Y334646D01*
X276756D01*
X276735Y334671D01*
X276589Y335407D01*
X276172Y336031D01*
X275548Y336448D01*
X274812Y336594D01*
X274076Y336448D01*
X273453Y336031D01*
X273036Y335407D01*
X272889Y334671D01*
X272868Y334646D01*
X141732D01*
Y425197D01*
X141732D01*
X153543Y437008D01*
X291339D01*
Y411908D01*
D02*
G37*
%LPC*%
G36*
X258500Y418923D02*
X257764Y418776D01*
X257140Y418360D01*
X256724Y417736D01*
X256577Y417000D01*
X256724Y416264D01*
X256404Y415842D01*
X256000Y415923D01*
X255264Y415776D01*
X254640Y415360D01*
X254224Y414736D01*
X254077Y414000D01*
X254224Y413264D01*
X254640Y412640D01*
X255264Y412224D01*
X256000Y412077D01*
X256736Y412224D01*
X257360Y412640D01*
X257776Y413264D01*
X257923Y414000D01*
X257776Y414736D01*
X258096Y415158D01*
X258500Y415077D01*
X259236Y415224D01*
X259860Y415640D01*
X260276Y416264D01*
X260423Y417000D01*
X260276Y417736D01*
X259860Y418360D01*
X259236Y418776D01*
X258500Y418923D01*
D02*
G37*
G36*
X262097Y407951D02*
X261361Y407805D01*
X260737Y407388D01*
X260320Y406764D01*
X260276Y406541D01*
X260098Y406454D01*
X259734Y406379D01*
X259199Y406736D01*
X258463Y406882D01*
X257728Y406736D01*
X257104Y406319D01*
X256687Y405695D01*
X256599Y405254D01*
X256059Y405013D01*
X255720Y405240D01*
X254984Y405386D01*
X254248Y405240D01*
X253624Y404823D01*
X253208Y404199D01*
X253061Y403463D01*
X253208Y402728D01*
X253624Y402104D01*
X254248Y401687D01*
X254984Y401541D01*
X255720Y401687D01*
X256344Y402104D01*
X256760Y402728D01*
X256848Y403169D01*
X257388Y403410D01*
X257728Y403183D01*
X258463Y403037D01*
X259199Y403183D01*
X259823Y403600D01*
X260240Y404224D01*
X260284Y404447D01*
X260463Y404534D01*
X260826Y404609D01*
X261361Y404252D01*
X262097Y404106D01*
X262833Y404252D01*
X263456Y404669D01*
X263761Y405125D01*
X263830Y405146D01*
X264298Y405132D01*
X264317Y405125D01*
X264640Y404640D01*
X265264Y404224D01*
X266000Y404077D01*
X266736Y404224D01*
X267360Y404640D01*
X267776Y405264D01*
X267923Y406000D01*
X267776Y406736D01*
X267360Y407360D01*
X266736Y407776D01*
X266000Y407923D01*
X265264Y407776D01*
X264640Y407360D01*
X264336Y406904D01*
X264267Y406883D01*
X263799Y406896D01*
X263780Y406904D01*
X263456Y407388D01*
X262833Y407805D01*
X262097Y407951D01*
D02*
G37*
G36*
X270500Y407423D02*
X269764Y407276D01*
X269140Y406860D01*
X268724Y406236D01*
X268577Y405500D01*
X268724Y404764D01*
X269140Y404140D01*
X269764Y403724D01*
X270500Y403577D01*
X271236Y403724D01*
X271557Y403938D01*
X271917Y403578D01*
X271588Y403085D01*
X271441Y402349D01*
X271588Y401613D01*
X272005Y400989D01*
X272628Y400572D01*
X273364Y400426D01*
X274100Y400572D01*
X274724Y400989D01*
X275141Y401613D01*
X275287Y402349D01*
X275141Y403085D01*
X274724Y403708D01*
X274100Y404125D01*
X273364Y404272D01*
X272628Y404125D01*
X272307Y403911D01*
X271947Y404271D01*
X272276Y404764D01*
X272423Y405500D01*
X272276Y406236D01*
X271860Y406860D01*
X271236Y407276D01*
X270500Y407423D01*
D02*
G37*
G36*
X253000Y400423D02*
X252264Y400276D01*
X251640Y399860D01*
X251224Y399236D01*
X251077Y398500D01*
X251224Y397764D01*
X251640Y397140D01*
X252264Y396724D01*
X253000Y396577D01*
X253736Y396724D01*
X254360Y397140D01*
X254776Y397764D01*
X254923Y398500D01*
X254776Y399236D01*
X254360Y399860D01*
X253736Y400276D01*
X253000Y400423D01*
D02*
G37*
G36*
X166831Y396831D02*
X156169D01*
Y386169D01*
X166831D01*
Y396831D01*
D02*
G37*
G36*
X256500Y382294D02*
X255622Y382119D01*
X254878Y381622D01*
X254380Y380878D01*
X254206Y380000D01*
X254380Y379122D01*
X254878Y378378D01*
X255622Y377881D01*
X255776Y377850D01*
X255706Y377500D01*
X255880Y376622D01*
X256378Y375878D01*
X257122Y375380D01*
X258000Y375206D01*
X258878Y375380D01*
X259622Y375878D01*
X260120Y376622D01*
X260294Y377500D01*
X260120Y378378D01*
X259622Y379122D01*
X258878Y379620D01*
X258724Y379650D01*
X258794Y380000D01*
X258619Y380878D01*
X258122Y381622D01*
X257378Y382119D01*
X256500Y382294D01*
D02*
G37*
G36*
X268903Y373826D02*
X268167Y373679D01*
X267544Y373263D01*
X267127Y372639D01*
X266980Y371903D01*
X267127Y371167D01*
X267544Y370544D01*
X268167Y370127D01*
X268903Y369980D01*
X269639Y370127D01*
X270263Y370544D01*
X270679Y371167D01*
X270826Y371903D01*
X270679Y372639D01*
X270263Y373263D01*
X269639Y373679D01*
X268903Y373826D01*
D02*
G37*
G36*
X265500Y369500D02*
X243500D01*
Y359000D01*
X249500D01*
Y364000D01*
X260500D01*
Y359000D01*
X265500D01*
Y369500D01*
D02*
G37*
G36*
X257000Y348294D02*
X256122Y348119D01*
X255378Y347622D01*
X254880Y346878D01*
X254706Y346000D01*
X254880Y345122D01*
X255378Y344378D01*
X256122Y343881D01*
X256756Y343754D01*
X256706Y343500D01*
X256880Y342622D01*
X257378Y341878D01*
X258122Y341381D01*
X259000Y341206D01*
X259878Y341381D01*
X260622Y341878D01*
X261120Y342622D01*
X261294Y343500D01*
X261120Y344378D01*
X260622Y345122D01*
X259878Y345620D01*
X259243Y345746D01*
X259294Y346000D01*
X259120Y346878D01*
X258622Y347622D01*
X257878Y348119D01*
X257000Y348294D01*
D02*
G37*
G36*
X274000Y340923D02*
X273264Y340776D01*
X272640Y340360D01*
X272224Y339736D01*
X272077Y339000D01*
X272224Y338264D01*
X272640Y337640D01*
X273264Y337224D01*
X274000Y337077D01*
X274736Y337224D01*
X275360Y337640D01*
X275776Y338264D01*
X275923Y339000D01*
X275776Y339736D01*
X275360Y340360D01*
X274736Y340776D01*
X274000Y340923D01*
D02*
G37*
%LPD*%
D95*
X171539Y381461D02*
D03*
Y401539D02*
D03*
X151461D02*
D03*
Y381461D02*
D03*
D96*
X275500Y389500D02*
D03*
D98*
X260000Y394900D02*
D03*
X262700D02*
D03*
X265400D02*
D03*
X268000D02*
D03*
X260000Y392400D02*
D03*
X262700D02*
D03*
X265400D02*
D03*
X268000D02*
D03*
X260000Y389600D02*
D03*
X262700D02*
D03*
X265400D02*
D03*
X268000D02*
D03*
Y397500D02*
D03*
X265400D02*
D03*
X262700D02*
D03*
X260000D02*
D03*
D100*
X153543Y425197D02*
D03*
M02*
