G04*
G04 #@! TF.GenerationSoftware,Altium Limited,Altium Designer,20.1.11 (218)*
G04*
G04 Layer_Color=2752767*
%FSLAX25Y25*%
%MOIN*%
G70*
G04*
G04 #@! TF.SameCoordinates,CF1E9CB3-0BC2-4E6C-9A0D-545EBE8527ED*
G04*
G04*
G04 #@! TF.FilePolarity,Positive*
G04*
G01*
G75*
%ADD103C,0.00200*%
%ADD104C,0.00267*%
D103*
X219200Y269200D02*
Y270800D01*
X220800D01*
Y269200D01*
X219200D01*
X229200D02*
Y270800D01*
X230800D01*
Y269200D01*
X229200D01*
X239200D02*
Y270800D01*
X240800D01*
Y269200D01*
X239200D01*
X299200Y219200D02*
Y220800D01*
X300800D01*
Y219200D01*
X299200D01*
Y209200D02*
Y210800D01*
X300800D01*
Y209200D01*
X299200D01*
X239200Y289200D02*
Y290800D01*
X240800D01*
Y289200D01*
X239200D01*
X229200D02*
Y290800D01*
X230800D01*
Y289200D01*
X229200D01*
X239200Y299200D02*
Y300800D01*
X240800D01*
Y299200D01*
X239200D01*
X229200D02*
Y300800D01*
X230800D01*
Y299200D01*
X229200D01*
X239200Y309200D02*
Y310800D01*
X240800D01*
Y309200D01*
X239200D01*
X229200D02*
Y310800D01*
X230800D01*
Y309200D01*
X229200D01*
X374200Y219200D02*
Y220800D01*
X375800D01*
Y219200D01*
X374200D01*
X364200D02*
Y220800D01*
X365800D01*
Y219200D01*
X364200D01*
X374200Y229200D02*
Y230800D01*
X375800D01*
Y229200D01*
X374200D01*
X364200D02*
Y230800D01*
X365800D01*
Y229200D01*
X364200D01*
X374200Y239200D02*
Y240800D01*
X375800D01*
Y239200D01*
X374200D01*
X364200D02*
Y240800D01*
X365800D01*
Y239200D01*
X364200D01*
X374200Y249200D02*
Y250800D01*
X375800D01*
Y249200D01*
X374200D01*
X364200D02*
Y250800D01*
X365800D01*
Y249200D01*
X364200D01*
X374200Y259200D02*
Y260800D01*
X375800D01*
Y259200D01*
X374200D01*
X364200D02*
Y260800D01*
X365800D01*
Y259200D01*
X364200D01*
X374200Y269200D02*
Y270800D01*
X375800D01*
Y269200D01*
X374200D01*
X364200D02*
Y270800D01*
X365800D01*
Y269200D01*
X364200D01*
X374200Y279200D02*
Y280800D01*
X375800D01*
Y279200D01*
X374200D01*
X364200D02*
Y280800D01*
X365800D01*
Y279200D01*
X364200D01*
X374200Y289200D02*
Y290800D01*
X375800D01*
Y289200D01*
X374200D01*
X364200D02*
Y290800D01*
X365800D01*
Y289200D01*
X364200D01*
X374200Y299200D02*
Y300800D01*
X375800D01*
Y299200D01*
X374200D01*
X364200D02*
Y300800D01*
X365800D01*
Y299200D01*
X364200D01*
X374200Y309200D02*
Y310800D01*
X375800D01*
Y309200D01*
X374200D01*
X364200D02*
Y310800D01*
X365800D01*
Y309200D01*
X364200D01*
X374200Y319200D02*
Y320800D01*
X375800D01*
Y319200D01*
X374200D01*
X364200D02*
Y320800D01*
X365800D01*
Y319200D01*
X364200D01*
X374200Y329200D02*
Y330800D01*
X375800D01*
Y329200D01*
X374200D01*
X364200D02*
Y330800D01*
X365800D01*
Y329200D01*
X364200D01*
X374200Y339200D02*
Y340800D01*
X375800D01*
Y339200D01*
X374200D01*
X364200D02*
Y340800D01*
X365800D01*
Y339200D01*
X364200D01*
X374200Y349200D02*
Y350800D01*
X375800D01*
Y349200D01*
X374200D01*
X364200D02*
Y350800D01*
X365800D01*
Y349200D01*
X364200D01*
X374200Y359200D02*
Y360800D01*
X375800D01*
Y359200D01*
X374200D01*
X364200D02*
Y360800D01*
X365800D01*
Y359200D01*
X364200D01*
X374200Y369200D02*
Y370800D01*
X375800D01*
Y369200D01*
X374200D01*
X364200D02*
Y370800D01*
X365800D01*
Y369200D01*
X364200D01*
X374200Y379200D02*
Y380800D01*
X375800D01*
Y379200D01*
X374200D01*
X364200D02*
Y380800D01*
X365800D01*
Y379200D01*
X364200D01*
X374200Y389200D02*
Y390800D01*
X375800D01*
Y389200D01*
X374200D01*
X364200D02*
Y390800D01*
X365800D01*
Y389200D01*
X364200D01*
X374200Y399200D02*
Y400800D01*
X375800D01*
Y399200D01*
X374200D01*
X364200D02*
Y400800D01*
X365800D01*
Y399200D01*
X364200D01*
X374200Y409200D02*
Y410800D01*
X375800D01*
Y409200D01*
X374200D01*
X364200D02*
Y410800D01*
X365800D01*
Y409200D01*
X364200D01*
X344200Y339200D02*
Y340800D01*
X345800D01*
Y339200D01*
X344200D01*
X354200D02*
Y340800D01*
X355800D01*
Y339200D01*
X354200D01*
X344200Y329200D02*
Y330800D01*
X345800D01*
Y329200D01*
X344200D01*
X354200D02*
Y330800D01*
X355800D01*
Y329200D01*
X354200D01*
X344200Y319200D02*
Y320800D01*
X345800D01*
Y319200D01*
X344200D01*
X354200D02*
Y320800D01*
X355800D01*
Y319200D01*
X354200D01*
X344200Y309200D02*
Y310800D01*
X345800D01*
Y309200D01*
X344200D01*
X354200D02*
Y310800D01*
X355800D01*
Y309200D01*
X354200D01*
X344200Y299200D02*
Y300800D01*
X345800D01*
Y299200D01*
X344200D01*
X354200D02*
Y300800D01*
X355800D01*
Y299200D01*
X354200D01*
X344200Y289200D02*
Y290800D01*
X345800D01*
Y289200D01*
X344200D01*
X354200D02*
Y290800D01*
X355800D01*
Y289200D01*
X354200D01*
X344200Y279200D02*
Y280800D01*
X345800D01*
Y279200D01*
X344200D01*
X354200D02*
Y280800D01*
X355800D01*
Y279200D01*
X354200D01*
X344200Y269200D02*
Y270800D01*
X345800D01*
Y269200D01*
X344200D01*
X354200D02*
Y270800D01*
X355800D01*
Y269200D01*
X354200D01*
X344200Y259200D02*
Y260800D01*
X345800D01*
Y259200D01*
X344200D01*
X354200D02*
Y260800D01*
X355800D01*
Y259200D01*
X354200D01*
X344200Y249200D02*
Y250800D01*
X345800D01*
Y249200D01*
X344200D01*
X354200D02*
Y250800D01*
X355800D01*
Y249200D01*
X354200D01*
X344200Y239200D02*
Y240800D01*
X345800D01*
Y239200D01*
X344200D01*
X354200D02*
Y240800D01*
X355800D01*
Y239200D01*
X354200D01*
X344200Y229200D02*
Y230800D01*
X345800D01*
Y229200D01*
X344200D01*
X354200D02*
Y230800D01*
X355800D01*
Y229200D01*
X354200D01*
X344200Y219200D02*
Y220800D01*
X345800D01*
Y219200D01*
X344200D01*
X354200D02*
Y220800D01*
X355800D01*
Y219200D01*
X354200D01*
X344200Y209200D02*
Y210800D01*
X345800D01*
Y209200D01*
X344200D01*
X354200D02*
Y210800D01*
X355800D01*
Y209200D01*
X354200D01*
X344200Y199200D02*
Y200800D01*
X345800D01*
Y199200D01*
X344200D01*
X354200D02*
Y200800D01*
X355800D01*
Y199200D01*
X354200D01*
X149200Y259200D02*
Y260800D01*
X150800D01*
Y259200D01*
X149200D01*
Y249200D02*
Y250800D01*
X150800D01*
Y249200D01*
X149200D01*
X239200Y209200D02*
Y210800D01*
X240800D01*
Y209200D01*
X239200D01*
Y219200D02*
Y220800D01*
X240800D01*
Y219200D01*
X239200D01*
X249200Y209200D02*
Y210800D01*
X250800D01*
Y209200D01*
X249200D01*
Y219200D02*
Y220800D01*
X250800D01*
Y219200D01*
X249200D01*
X259200Y209200D02*
Y210800D01*
X260800D01*
Y209200D01*
X259200D01*
Y219200D02*
Y220800D01*
X260800D01*
Y219200D01*
X259200D01*
X269200Y209200D02*
Y210800D01*
X270800D01*
Y209200D01*
X269200D01*
Y219200D02*
Y220800D01*
X270800D01*
Y219200D01*
X269200D01*
X329200Y259200D02*
Y260800D01*
X330800D01*
Y259200D01*
X329200D01*
X319200D02*
Y260800D01*
X320800D01*
Y259200D01*
X319200D01*
X329200Y269200D02*
Y270800D01*
X330800D01*
Y269200D01*
X329200D01*
X319200D02*
Y270800D01*
X320800D01*
Y269200D01*
X319200D01*
X329200Y279200D02*
Y280800D01*
X330800D01*
Y279200D01*
X329200D01*
X319200D02*
Y280800D01*
X320800D01*
Y279200D01*
X319200D01*
X329200Y289200D02*
Y290800D01*
X330800D01*
Y289200D01*
X329200D01*
X319200D02*
Y290800D01*
X320800D01*
Y289200D01*
X319200D01*
X309200Y239200D02*
Y240800D01*
X310800D01*
Y239200D01*
X309200D01*
X299200D02*
Y240800D01*
X300800D01*
Y239200D01*
X299200D01*
X289200D02*
Y240800D01*
X290800D01*
Y239200D01*
X289200D01*
X279200D02*
Y240800D01*
X280800D01*
Y239200D01*
X279200D01*
X269200D02*
Y240800D01*
X270800D01*
Y239200D01*
X269200D01*
X259200D02*
Y240800D01*
X260800D01*
Y239200D01*
X259200D01*
X249200D02*
Y240800D01*
X250800D01*
Y239200D01*
X249200D01*
X239200D02*
Y240800D01*
X240800D01*
Y239200D01*
X239200D01*
X179200Y319200D02*
Y320800D01*
X180800D01*
Y319200D01*
X179200D01*
X169200D02*
Y320800D01*
X170800D01*
Y319200D01*
X169200D01*
X199200D02*
Y320800D01*
X200800D01*
Y319200D01*
X199200D01*
X209200D02*
Y320800D01*
X210800D01*
Y319200D01*
X209200D01*
X329200D02*
Y320800D01*
X330800D01*
Y319200D01*
X329200D01*
X319200D02*
Y320800D01*
X320800D01*
Y319200D01*
X319200D01*
X309200D02*
Y320800D01*
X310800D01*
Y319200D01*
X309200D01*
X299200D02*
Y320800D01*
X300800D01*
Y319200D01*
X299200D01*
X190500Y243200D02*
X189700Y244800D01*
X191300D01*
X190500Y243200D01*
X212920Y246120D02*
X213320Y246520D01*
X213720D01*
X213320Y246920D01*
X213720Y247320D01*
X213320D01*
X212920Y247720D01*
X212520Y247320D01*
X212120D01*
X212520Y246920D01*
X212120Y246520D01*
X212520D01*
X212920Y246120D01*
X210352Y243552D02*
X210752Y243952D01*
X211152D01*
X210752Y244352D01*
X211152Y244752D01*
X210752D01*
X210352Y245152D01*
X209952Y244752D01*
X209552D01*
X209952Y244352D01*
X209552Y243952D01*
X209952D01*
X210352Y243552D01*
X270484Y313508D02*
X269684Y315108D01*
X271284D01*
X270484Y313508D01*
X313000Y343200D02*
X312200Y344800D01*
X313800D01*
X313000Y343200D01*
X259200Y394100D02*
X259600Y394900D01*
X259200Y395700D01*
X260000Y395300D01*
X260800Y395700D01*
X260400Y394900D01*
X260800Y394100D01*
X260000Y394500D01*
X259200Y394100D01*
X261900D02*
X262300Y394900D01*
X261900Y395700D01*
X262700Y395300D01*
X263500Y395700D01*
X263100Y394900D01*
X263500Y394100D01*
X262700Y394500D01*
X261900Y394100D01*
X264600D02*
X265000Y394900D01*
X264600Y395700D01*
X265400Y395300D01*
X266200Y395700D01*
X265800Y394900D01*
X266200Y394100D01*
X265400Y394500D01*
X264600Y394100D01*
X267200D02*
X267600Y394900D01*
X267200Y395700D01*
X268000Y395300D01*
X268800Y395700D01*
X268400Y394900D01*
X268800Y394100D01*
X268000Y394500D01*
X267200Y394100D01*
X259200Y391600D02*
X259600Y392400D01*
X259200Y393200D01*
X260000Y392800D01*
X260800Y393200D01*
X260400Y392400D01*
X260800Y391600D01*
X260000Y392000D01*
X259200Y391600D01*
X261900D02*
X262300Y392400D01*
X261900Y393200D01*
X262700Y392800D01*
X263500Y393200D01*
X263100Y392400D01*
X263500Y391600D01*
X262700Y392000D01*
X261900Y391600D01*
X264600D02*
X265000Y392400D01*
X264600Y393200D01*
X265400Y392800D01*
X266200Y393200D01*
X265800Y392400D01*
X266200Y391600D01*
X265400Y392000D01*
X264600Y391600D01*
X267200D02*
X267600Y392400D01*
X267200Y393200D01*
X268000Y392800D01*
X268800Y393200D01*
X268400Y392400D01*
X268800Y391600D01*
X268000Y392000D01*
X267200Y391600D01*
X259200Y388800D02*
X259600Y389600D01*
X259200Y390400D01*
X260000Y390000D01*
X260800Y390400D01*
X260400Y389600D01*
X260800Y388800D01*
X260000Y389200D01*
X259200Y388800D01*
X261900D02*
X262300Y389600D01*
X261900Y390400D01*
X262700Y390000D01*
X263500Y390400D01*
X263100Y389600D01*
X263500Y388800D01*
X262700Y389200D01*
X261900Y388800D01*
X264600D02*
X265000Y389600D01*
X264600Y390400D01*
X265400Y390000D01*
X266200Y390400D01*
X265800Y389600D01*
X266200Y388800D01*
X265400Y389200D01*
X264600Y388800D01*
X267200D02*
X267600Y389600D01*
X267200Y390400D01*
X268000Y390000D01*
X268800Y390400D01*
X268400Y389600D01*
X268800Y388800D01*
X268000Y389200D01*
X267200Y388800D01*
Y396700D02*
X267600Y397500D01*
X267200Y398300D01*
X268000Y397900D01*
X268800Y398300D01*
X268400Y397500D01*
X268800Y396700D01*
X268000Y397100D01*
X267200Y396700D01*
X264600D02*
X265000Y397500D01*
X264600Y398300D01*
X265400Y397900D01*
X266200Y398300D01*
X265800Y397500D01*
X266200Y396700D01*
X265400Y397100D01*
X264600Y396700D01*
X261900D02*
X262300Y397500D01*
X261900Y398300D01*
X262700Y397900D01*
X263500Y398300D01*
X263100Y397500D01*
X263500Y396700D01*
X262700Y397100D01*
X261900Y396700D01*
X259200D02*
X259600Y397500D01*
X259200Y398300D01*
X260000Y397900D01*
X260800Y398300D01*
X260400Y397500D01*
X260800Y396700D01*
X260000Y397100D01*
X259200Y396700D01*
X348500Y370700D02*
X347700Y372300D01*
X349300D01*
X348500Y370700D01*
X310000Y374200D02*
X309200Y375800D01*
X310800D01*
X310000Y374200D01*
X305000Y416700D02*
X304200Y418300D01*
X305800D01*
X305000Y416700D01*
X304500Y401200D02*
X303700Y402800D01*
X305300D01*
X304500Y401200D01*
X276619Y329905D02*
X275819Y331505D01*
X277419D01*
X276619Y329905D01*
X256600Y345600D02*
Y345200D01*
X257400D01*
Y345600D01*
X257800D01*
Y346400D01*
X257400D01*
Y346800D01*
X256600D01*
Y346400D01*
X256200D01*
Y345600D01*
X256600D01*
X258600Y343100D02*
Y342700D01*
X259400D01*
Y343100D01*
X259800D01*
Y343900D01*
X259400D01*
Y344300D01*
X258600D01*
Y343900D01*
X258200D01*
Y343100D01*
X258600D01*
X273500Y327200D02*
X272700Y328800D01*
X274300D01*
X273500Y327200D01*
X274812Y333872D02*
X274012Y335472D01*
X275612D01*
X274812Y333872D01*
X274000Y338200D02*
X273200Y339800D01*
X274800D01*
X274000Y338200D01*
X275500Y388700D02*
X274700Y390300D01*
X276300D01*
X275500Y388700D01*
X273364Y401549D02*
X272564Y403149D01*
X274164D01*
X273364Y401549D01*
X268903Y371103D02*
X268103Y372703D01*
X269703D01*
X268903Y371103D01*
X254984Y402663D02*
X254184Y404263D01*
X255784D01*
X254984Y402663D01*
X253000Y397700D02*
X252200Y399300D01*
X253800D01*
X253000Y397700D01*
X258463Y404159D02*
X257663Y405759D01*
X259263D01*
X258463Y404159D01*
X262097Y405229D02*
X261297Y406828D01*
X262897D01*
X262097Y405229D01*
X257600Y377100D02*
Y376700D01*
X258400D01*
Y377100D01*
X258800D01*
Y377900D01*
X258400D01*
Y378300D01*
X257600D01*
Y377900D01*
X257200D01*
Y377100D01*
X257600D01*
X254000Y287169D02*
X253200Y288769D01*
X254800D01*
X254000Y287169D01*
X293000Y410200D02*
X292200Y411800D01*
X293800D01*
X293000Y410200D01*
X266000Y405200D02*
X265200Y406800D01*
X266800D01*
X266000Y405200D01*
X258500Y416200D02*
X257700Y417800D01*
X259300D01*
X258500Y416200D01*
X256000Y413200D02*
X255200Y414800D01*
X256800D01*
X256000Y413200D01*
X331000Y346200D02*
X330200Y347800D01*
X331800D01*
X331000Y346200D01*
X306500Y354200D02*
X305700Y355800D01*
X307300D01*
X306500Y354200D01*
X270500Y404700D02*
X269700Y406300D01*
X271300D01*
X270500Y404700D01*
X369279Y424397D02*
X369679D01*
X370079Y424797D01*
X370479Y424397D01*
X370879D01*
Y424797D01*
X370479Y425197D01*
X370879Y425597D01*
Y425997D01*
X370479D01*
X370079Y425597D01*
X369679Y425997D01*
X369279D01*
Y425597D01*
X369679Y425197D01*
X369279Y424797D01*
Y424397D01*
Y203924D02*
X369679D01*
X370079Y204324D01*
X370479Y203924D01*
X370879D01*
Y204324D01*
X370479Y204724D01*
X370879Y205124D01*
Y205524D01*
X370479D01*
X370079Y205124D01*
X369679Y205524D01*
X369279D01*
Y205124D01*
X369679Y204724D01*
X369279Y204324D01*
Y203924D01*
X152743D02*
X153143D01*
X153543Y204324D01*
X153943Y203924D01*
X154343D01*
Y204324D01*
X153943Y204724D01*
X154343Y205124D01*
Y205524D01*
X153943D01*
X153543Y205124D01*
X153143Y205524D01*
X152743D01*
Y205124D01*
X153143Y204724D01*
X152743Y204324D01*
Y203924D01*
Y424397D02*
X153143D01*
X153543Y424797D01*
X153943Y424397D01*
X154343D01*
Y424797D01*
X153943Y425197D01*
X154343Y425597D01*
Y425997D01*
X153943D01*
X153543Y425597D01*
X153143Y425997D01*
X152743D01*
Y425597D01*
X153143Y425197D01*
X152743Y424797D01*
Y424397D01*
X176376Y281137D02*
X175576Y282737D01*
X177176D01*
X176376Y281137D01*
Y284090D02*
X175576Y285690D01*
X177176D01*
X176376Y284090D01*
Y278184D02*
X175576Y279784D01*
X177176D01*
X176376Y278184D01*
X186012Y230716D02*
X186412Y231116D01*
X186812D01*
X186412Y231516D01*
X186812Y231916D01*
X186412D01*
X186012Y232316D01*
X185612Y231916D01*
X185212D01*
X185612Y231516D01*
X185212Y231116D01*
X185612D01*
X186012Y230716D01*
X187980Y228747D02*
X188380Y229147D01*
X188780D01*
X188380Y229547D01*
X188780Y229947D01*
X188380D01*
X187980Y230347D01*
X187580Y229947D01*
X187180D01*
X187580Y229547D01*
X187180Y229147D01*
X187580D01*
X187980Y228747D01*
Y232684D02*
X188380Y233084D01*
X188780D01*
X188380Y233484D01*
X188780Y233884D01*
X188380D01*
X187980Y234284D01*
X187580Y233884D01*
X187180D01*
X187580Y233484D01*
X187180Y233084D01*
X187580D01*
X187980Y232684D01*
X184043D02*
X184443Y233084D01*
X184843D01*
X184443Y233484D01*
X184843Y233884D01*
X184443D01*
X184043Y234284D01*
X183643Y233884D01*
X183243D01*
X183643Y233484D01*
X183243Y233084D01*
X183643D01*
X184043Y232684D01*
Y228747D02*
X184443Y229147D01*
X184843D01*
X184443Y229547D01*
X184843Y229947D01*
X184443D01*
X184043Y230347D01*
X183643Y229947D01*
X183243D01*
X183643Y229547D01*
X183243Y229147D01*
X183643D01*
X184043Y228747D01*
X187000Y218200D02*
X186200Y219800D01*
X187800D01*
X187000Y218200D01*
X188500Y241700D02*
X187700Y243300D01*
X189300D01*
X188500Y241700D01*
X267500Y267200D02*
X266700Y268800D01*
X268300D01*
X267500Y267200D01*
X268000Y292200D02*
X267200Y293800D01*
X268800D01*
X268000Y292200D01*
X277500Y268200D02*
X276700Y269800D01*
X278300D01*
X277500Y268200D01*
X181000Y272700D02*
X180200Y274300D01*
X181800D01*
X181000Y272700D01*
X180000Y302700D02*
X180400Y303100D01*
X180800D01*
X180400Y303500D01*
X180800Y303900D01*
X180400D01*
X180000Y304300D01*
X179600Y303900D01*
X179200D01*
X179600Y303500D01*
X179200Y303100D01*
X179600D01*
X180000Y302700D01*
X196000D02*
X196400Y303100D01*
X196800D01*
X196400Y303500D01*
X196800Y303900D01*
X196400D01*
X196000Y304300D01*
X195600Y303900D01*
X195200D01*
X195600Y303500D01*
X195200Y303100D01*
X195600D01*
X196000Y302700D01*
X235000Y281375D02*
X235400Y281775D01*
X235800D01*
X235400Y282175D01*
X235800Y282575D01*
X235400D01*
X235000Y282975D01*
X234600Y282575D01*
X234200D01*
X234600Y282175D01*
X234200Y281775D01*
X234600D01*
X235000Y281375D01*
X268000Y288700D02*
X267200Y290300D01*
X268800D01*
X268000Y288700D01*
X269500Y265200D02*
X268700Y266800D01*
X270300D01*
X269500Y265200D01*
X276500Y255200D02*
X276900Y255600D01*
X277300D01*
X276900Y256000D01*
X277300Y256400D01*
X276900D01*
X276500Y256800D01*
X276100Y256400D01*
X275700D01*
X276100Y256000D01*
X275700Y255600D01*
X276100D01*
X276500Y255200D01*
X277563Y265200D02*
X276763Y266800D01*
X278363D01*
X277563Y265200D01*
X291500Y261200D02*
X291900Y261600D01*
X292300D01*
X291900Y262000D01*
X292300Y262400D01*
X291900D01*
X291500Y262800D01*
X291100Y262400D01*
X290700D01*
X291100Y262000D01*
X290700Y261600D01*
X291100D01*
X291500Y261200D01*
X169500Y275200D02*
X168700Y276800D01*
X170300D01*
X169500Y275200D01*
X183672Y282007D02*
X182872Y283607D01*
X184472D01*
X183672Y282007D01*
X168500Y283200D02*
X167700Y284800D01*
X169300D01*
X168500Y283200D01*
X192366Y281834D02*
X191566Y283434D01*
X193166D01*
X192366Y281834D01*
X254181Y283381D02*
X253381Y284981D01*
X254981D01*
X254181Y283381D01*
X272000Y292200D02*
X272400Y292600D01*
X272800D01*
X272400Y293000D01*
X272800Y293400D01*
X272400D01*
X272000Y293800D01*
X271600Y293400D01*
X271200D01*
X271600Y293000D01*
X271200Y292600D01*
X271600D01*
X272000Y292200D01*
X192366Y279066D02*
X191566Y280666D01*
X193166D01*
X192366Y279066D01*
X193000Y302700D02*
X193400Y303100D01*
X193800D01*
X193400Y303500D01*
X193800Y303900D01*
X193400D01*
X193000Y304300D01*
X192600Y303900D01*
X192200D01*
X192600Y303500D01*
X192200Y303100D01*
X192600D01*
X193000Y302700D01*
X183000D02*
X183400Y303100D01*
X183800D01*
X183400Y303500D01*
X183800Y303900D01*
X183400D01*
X183000Y304300D01*
X182600Y303900D01*
X182200D01*
X182600Y303500D01*
X182200Y303100D01*
X182600D01*
X183000Y302700D01*
X199500Y216700D02*
X198700Y218300D01*
X200300D01*
X199500Y216700D01*
X199000Y232700D02*
X199400Y233100D01*
X199800D01*
X199400Y233500D01*
X199800Y233900D01*
X199400D01*
X199000Y234300D01*
X198600Y233900D01*
X198200D01*
X198600Y233500D01*
X198200Y233100D01*
X198600D01*
X199000Y232700D01*
X256100Y379600D02*
Y379200D01*
X256900D01*
Y379600D01*
X257300D01*
Y380400D01*
X256900D01*
Y380800D01*
X256100D01*
Y380400D01*
X255700D01*
Y379600D01*
X256100D01*
X278343Y280043D02*
X277542Y281643D01*
X279142D01*
X278343Y280043D01*
X273500Y265200D02*
X272700Y266800D01*
X274300D01*
X273500Y265200D01*
Y295700D02*
X273900Y296100D01*
X274300D01*
X273900Y296500D01*
X274300Y296900D01*
X273900D01*
X273500Y297300D01*
X273100Y296900D01*
X272700D01*
X273100Y296500D01*
X272700Y296100D01*
X273100D01*
X273500Y295700D01*
X312000Y287200D02*
X311200Y288800D01*
X312800D01*
X312000Y287200D01*
X305000Y277700D02*
X304200Y279300D01*
X305800D01*
X305000Y277700D01*
X309453Y296747D02*
X309853Y297147D01*
X310253D01*
X309853Y297547D01*
X310253Y297947D01*
X309853D01*
X309453Y298347D01*
X309053Y297947D01*
X308653D01*
X309053Y297547D01*
X308653Y297147D01*
X309053D01*
X309453Y296747D01*
X266500Y260700D02*
X266900Y261100D01*
X267300D01*
X266900Y261500D01*
X267300Y261900D01*
X266900D01*
X266500Y262300D01*
X266100Y261900D01*
X265700D01*
X266100Y261500D01*
X265700Y261100D01*
X266100D01*
X266500Y260700D01*
X161547Y279153D02*
X161947Y279553D01*
X162347D01*
X161947Y279953D01*
X162347Y280353D01*
X161947D01*
X161547Y280753D01*
X161147Y280353D01*
X160747D01*
X161147Y279953D01*
X160747Y279553D01*
X161147D01*
X161547Y279153D01*
D104*
X162300Y391500D02*
X161747Y392261D01*
X160853Y391970D01*
Y391030D01*
X161747Y390739D01*
X162300Y391500D01*
X172339Y381461D02*
X171787Y382222D01*
X170892Y381931D01*
Y380990D01*
X171787Y380700D01*
X172339Y381461D01*
Y401539D02*
X171787Y402300D01*
X170892Y402010D01*
Y401069D01*
X171787Y400778D01*
X172339Y401539D01*
X152261D02*
X151708Y402300D01*
X150813Y402010D01*
Y401069D01*
X151708Y400778D01*
X152261Y401539D01*
Y381461D02*
X151708Y382222D01*
X150813Y381931D01*
Y380990D01*
X151708Y380700D01*
X152261Y381461D01*
M02*
