G04*
G04 #@! TF.GenerationSoftware,Altium Limited,Altium Designer,20.1.11 (218)*
G04*
G04 Layer_Physical_Order=4*
G04 Layer_Color=16711680*
%FSLAX25Y25*%
%MOIN*%
G70*
G04*
G04 #@! TF.SameCoordinates,CF1E9CB3-0BC2-4E6C-9A0D-545EBE8527ED*
G04*
G04*
G04 #@! TF.FilePolarity,Positive*
G04*
G01*
G75*
%ADD11C,0.01000*%
%ADD85C,0.03000*%
%ADD87C,0.01500*%
%ADD91R,0.05906X0.05906*%
%ADD92C,0.05906*%
%ADD93R,0.05906X0.05906*%
%ADD94R,0.08661X0.08661*%
%ADD95C,0.08661*%
%ADD96C,0.01772*%
%ADD97C,0.02362*%
%ADD98C,0.01968*%
%ADD99C,0.02500*%
%ADD100C,0.13780*%
%ADD101R,0.03150X0.06299*%
G36*
X291339Y412122D02*
X262773D01*
X262344Y412036D01*
X261980Y411793D01*
X261980Y411793D01*
X261304Y411117D01*
X261061Y410753D01*
X260975Y410323D01*
X260975Y410323D01*
Y407547D01*
X260737Y407388D01*
X260375Y406847D01*
X260120Y406729D01*
X259792Y406671D01*
X259585Y406836D01*
Y415457D01*
X259860Y415640D01*
X260276Y416264D01*
X260423Y417000D01*
X260276Y417736D01*
X259860Y418360D01*
X259236Y418776D01*
X258500Y418923D01*
X257764Y418776D01*
X257140Y418360D01*
X256724Y417736D01*
X256577Y417000D01*
X256724Y416264D01*
X256404Y415842D01*
X256000Y415923D01*
X255264Y415776D01*
X254640Y415360D01*
X254224Y414736D01*
X254077Y414000D01*
X254139Y413688D01*
X253971Y413436D01*
X253886Y413007D01*
X253886Y413007D01*
Y404997D01*
X253624Y404823D01*
X253208Y404199D01*
X253061Y403463D01*
X253208Y402728D01*
X253265Y402641D01*
X253029Y402201D01*
X251177D01*
X250717Y402109D01*
X250328Y401849D01*
X249651Y401172D01*
X249391Y400783D01*
X249299Y400323D01*
Y344500D01*
X249391Y344041D01*
X249651Y343651D01*
X258194Y335108D01*
X258003Y334646D01*
X141732D01*
Y425197D01*
X141732D01*
X153543Y437008D01*
X291339D01*
Y412122D01*
D02*
G37*
G36*
X261000Y359000D02*
Y339500D01*
X259698D01*
X254500Y344698D01*
Y382000D01*
X261000D01*
Y359000D01*
D02*
G37*
G36*
X291339Y334646D02*
X276756D01*
X276735Y334671D01*
X276589Y335407D01*
X276172Y336031D01*
X275548Y336448D01*
X274937Y336569D01*
X274800Y336727D01*
X274785Y336840D01*
X274868Y337312D01*
X275360Y337640D01*
X275776Y338264D01*
X275923Y339000D01*
X275776Y339736D01*
X275360Y340360D01*
X274856Y340696D01*
Y380186D01*
X274764Y380645D01*
X274504Y381034D01*
X273756Y381782D01*
Y400504D01*
X274100Y400572D01*
X274724Y400989D01*
X275141Y401613D01*
X275287Y402349D01*
X275141Y403085D01*
X274724Y403708D01*
X274100Y404125D01*
X273364Y404272D01*
X272628Y404125D01*
X272318Y404519D01*
X272268Y404751D01*
X272276Y404764D01*
X272423Y405500D01*
X272276Y406236D01*
X271860Y406860D01*
X271236Y407276D01*
X270500Y407423D01*
X269764Y407276D01*
X269140Y406860D01*
X268724Y406236D01*
X268577Y405500D01*
X268724Y404764D01*
X269140Y404140D01*
X269700Y403766D01*
Y380599D01*
X269792Y380140D01*
X270052Y379750D01*
X270336Y379466D01*
Y373815D01*
X269836Y373548D01*
X269639Y373679D01*
X268903Y373826D01*
X268167Y373679D01*
X267544Y373263D01*
X267127Y372639D01*
X266980Y371903D01*
X267127Y371167D01*
X267544Y370544D01*
X268167Y370127D01*
X268903Y369980D01*
X269639Y370127D01*
X269836Y370258D01*
X270336Y369991D01*
Y337947D01*
X270427Y337488D01*
X270688Y337098D01*
X272640Y335146D01*
X272433Y334646D01*
X264552D01*
X260809Y338389D01*
X261038Y338866D01*
X261459Y339041D01*
X261649Y339500D01*
Y359000D01*
X265000D01*
Y386000D01*
X254201D01*
Y397034D01*
X254360Y397140D01*
X254776Y397764D01*
X254923Y398500D01*
X254776Y399236D01*
X254695Y399359D01*
X254930Y399799D01*
X261000D01*
X261459Y399891D01*
X261849Y400151D01*
X265812Y404114D01*
X266000Y404077D01*
X266736Y404224D01*
X267360Y404640D01*
X267776Y405264D01*
X267923Y406000D01*
X267776Y406736D01*
X267360Y407360D01*
X266736Y407776D01*
X266000Y407923D01*
X265264Y407776D01*
X264640Y407360D01*
X264336Y406904D01*
X264267Y406883D01*
X263799Y406896D01*
X263780Y406904D01*
X263456Y407388D01*
X263218Y407547D01*
Y409859D01*
X263238Y409878D01*
X291339D01*
Y334646D01*
D02*
G37*
%LPC*%
G36*
X166831Y396831D02*
X156169D01*
Y386169D01*
X166831D01*
Y396831D01*
D02*
G37*
%LPD*%
D11*
X236500Y305000D02*
X261176D01*
X270484Y314308D01*
X316000Y347000D02*
X331000D01*
X313000Y344000D02*
X316000Y347000D01*
X310000Y375000D02*
X345000D01*
X348500Y371500D01*
X310000Y375000D02*
Y412500D01*
X305000Y417500D02*
X310000Y412500D01*
X306500Y355000D02*
Y400000D01*
X304500Y402000D02*
X306500Y400000D01*
X253000Y344500D02*
X266760Y330740D01*
X276584D02*
X276619Y330705D01*
X266760Y330740D02*
X276584D01*
X253000Y344500D02*
Y398500D01*
X250500Y344500D02*
X267000Y328000D01*
X273500D01*
X271537Y337947D02*
X274812Y334671D01*
X271537Y337947D02*
Y379963D01*
X273655Y339345D02*
X274000Y339000D01*
X273655Y339345D02*
Y380186D01*
X250500Y344500D02*
Y400323D01*
X270901Y380599D02*
X271537Y379963D01*
X272556Y381285D02*
X273655Y380186D01*
X270500Y405333D02*
Y405500D01*
X270901Y380599D02*
Y404932D01*
X270500Y405333D02*
X270901Y404932D01*
X272556Y381285D02*
Y401373D01*
X273364Y402182D02*
Y402349D01*
X272556Y401373D02*
X273364Y402182D01*
X251177Y401000D02*
X261000D01*
X250500Y400323D02*
X251177Y401000D01*
X261000D02*
X266000Y406000D01*
X255007Y403486D02*
Y413007D01*
X254984Y403463D02*
X255007Y403486D01*
Y413007D02*
X256000Y414000D01*
X262097Y406029D02*
Y410323D01*
X258463Y404959D02*
Y416963D01*
X258500Y417000D01*
X272233Y297500D02*
X273233Y296500D01*
X252500Y291000D02*
X266500D01*
X271374Y293000D02*
X272000D01*
X268988Y295386D02*
X271374Y293000D01*
X246000Y289621D02*
X251764Y295386D01*
X244500Y291500D02*
X250500Y297500D01*
X251500Y293000D02*
X268000D01*
X275000Y300000D02*
X278343Y296657D01*
X273233Y296500D02*
X273500D01*
X249500Y288000D02*
X252500Y291000D01*
X240000Y300000D02*
X275000D01*
X266500Y291000D02*
X268000Y289500D01*
X247500Y289000D02*
X251500Y293000D01*
X278343Y280842D02*
Y296657D01*
X251764Y295386D02*
X268988D01*
X250500Y297500D02*
X272233D01*
X235000Y295000D02*
Y303500D01*
X236500Y305000D01*
X262773Y411000D02*
X293000D01*
X262097Y410323D02*
X262773Y411000D01*
X169500Y276000D02*
X172000Y273500D01*
X168500Y283791D02*
X169500Y282791D01*
X168500Y283791D02*
Y284000D01*
X197791Y219000D02*
X199291Y217500D01*
X243027Y285000D02*
X244500Y286473D01*
X169500Y276000D02*
Y282791D01*
X246000Y261000D02*
Y289621D01*
X233500Y226500D02*
Y243000D01*
X244500Y286473D02*
Y291500D01*
X249500Y259000D02*
Y288000D01*
X172000Y273500D02*
X181000D01*
X199291Y217500D02*
X199500D01*
X199000Y233500D02*
X218500D01*
X230000Y290000D02*
X235000Y295000D01*
X312000Y278000D02*
X315000Y275000D01*
X183672Y282807D02*
X194919Y271561D01*
X205939D02*
X219379Y285000D01*
X206500Y270000D02*
X218675Y282175D01*
X245547Y215547D02*
X250000Y220000D01*
X232000Y219586D02*
X236038Y215547D01*
X245547D01*
X233500Y226500D02*
X240000Y220000D01*
X233500Y243000D02*
X249500Y259000D01*
X312000Y278000D02*
Y288000D01*
X305000Y278500D02*
X318500Y265000D01*
X325000Y275000D02*
X330000Y270000D01*
X232000Y244500D02*
X247500Y260000D01*
X232000Y219586D02*
Y244500D01*
X325000Y265000D02*
X330000Y260000D01*
X247500D02*
Y289000D01*
X187000Y219000D02*
X197791D01*
X171500Y270000D02*
X206500D01*
X219379Y285000D02*
X243027D01*
X218675Y282175D02*
X235000D01*
X318500Y265000D02*
X325000D01*
X315000Y275000D02*
X325000D01*
X194919Y271561D02*
X205939D01*
X161547Y279953D02*
X171500Y270000D01*
X218500Y233500D02*
X246000Y261000D01*
D85*
X190352Y244352D02*
X210352D01*
X188500Y242500D02*
X190352Y244352D01*
X260000Y200000D02*
Y210000D01*
X330000Y290000D02*
Y300000D01*
D87*
X268806Y372000D02*
X268903Y371903D01*
X251500Y285469D02*
X254000Y287968D01*
X251500Y251500D02*
Y285469D01*
X269500Y266000D02*
X269552Y265948D01*
X277552Y268948D02*
X279052D01*
X277500Y269000D02*
X277552Y268948D01*
X250000Y240000D02*
X254181Y244181D01*
X269552Y240448D02*
X270000Y240000D01*
X290000D02*
Y253563D01*
X300000Y240000D02*
Y248000D01*
X260000Y240000D02*
Y260500D01*
X269552Y240448D02*
Y265948D01*
X273500Y246500D02*
Y266000D01*
X254181Y244181D02*
Y284181D01*
X240000Y240000D02*
X251500Y251500D01*
X273500Y246500D02*
X280000Y240000D01*
X277563Y266000D02*
X290000Y253563D01*
X260000Y260500D02*
X267500Y268000D01*
X279052Y268948D02*
X300000Y248000D01*
D91*
X220000Y270000D02*
D03*
X240000Y210000D02*
D03*
Y240000D02*
D03*
X180000Y320000D02*
D03*
X200000D02*
D03*
X330000D02*
D03*
D92*
X230000Y270000D02*
D03*
X240000D02*
D03*
X300000Y210000D02*
D03*
X230000Y290000D02*
D03*
X240000Y300000D02*
D03*
X230000D02*
D03*
X240000Y310000D02*
D03*
X230000D02*
D03*
X375000Y220000D02*
D03*
X365000D02*
D03*
X375000Y230000D02*
D03*
X365000D02*
D03*
X375000Y240000D02*
D03*
X365000D02*
D03*
X375000Y250000D02*
D03*
X365000D02*
D03*
X375000Y260000D02*
D03*
X365000D02*
D03*
X375000Y270000D02*
D03*
X365000D02*
D03*
X375000Y280000D02*
D03*
X365000D02*
D03*
X375000Y290000D02*
D03*
X365000D02*
D03*
X375000Y300000D02*
D03*
X365000D02*
D03*
X375000Y310000D02*
D03*
X365000D02*
D03*
X375000Y320000D02*
D03*
X365000D02*
D03*
X375000Y330000D02*
D03*
X365000D02*
D03*
X375000Y340000D02*
D03*
X365000D02*
D03*
X375000Y350000D02*
D03*
X365000D02*
D03*
X375000Y360000D02*
D03*
X365000D02*
D03*
X375000Y370000D02*
D03*
X365000D02*
D03*
X375000Y380000D02*
D03*
X365000D02*
D03*
X375000Y390000D02*
D03*
X365000D02*
D03*
X375000Y400000D02*
D03*
X365000D02*
D03*
X375000Y410000D02*
D03*
X365000D02*
D03*
X345000Y340000D02*
D03*
X355000D02*
D03*
X345000Y330000D02*
D03*
X355000D02*
D03*
X345000Y320000D02*
D03*
X355000D02*
D03*
X345000Y310000D02*
D03*
X355000D02*
D03*
X345000Y300000D02*
D03*
X355000D02*
D03*
X345000Y290000D02*
D03*
X355000D02*
D03*
X345000Y280000D02*
D03*
X355000D02*
D03*
X345000Y270000D02*
D03*
X355000D02*
D03*
X345000Y260000D02*
D03*
X355000D02*
D03*
X345000Y250000D02*
D03*
X355000D02*
D03*
X345000Y240000D02*
D03*
X355000D02*
D03*
X345000Y230000D02*
D03*
X355000D02*
D03*
X345000Y220000D02*
D03*
X355000D02*
D03*
X345000Y210000D02*
D03*
X355000D02*
D03*
X345000Y200000D02*
D03*
X355000D02*
D03*
X150000Y260000D02*
D03*
X240000Y220000D02*
D03*
X250000Y210000D02*
D03*
Y220000D02*
D03*
X260000Y210000D02*
D03*
Y220000D02*
D03*
X270000Y210000D02*
D03*
Y220000D02*
D03*
X320000Y260000D02*
D03*
X330000Y270000D02*
D03*
X320000D02*
D03*
X330000Y280000D02*
D03*
X320000D02*
D03*
X330000Y290000D02*
D03*
X320000D02*
D03*
X310000Y240000D02*
D03*
X300000D02*
D03*
X290000D02*
D03*
X280000D02*
D03*
X270000D02*
D03*
X260000D02*
D03*
X250000D02*
D03*
X170000Y320000D02*
D03*
X210000D02*
D03*
X320000D02*
D03*
X310000D02*
D03*
X300000D02*
D03*
D93*
Y220000D02*
D03*
X240000Y290000D02*
D03*
X150000Y250000D02*
D03*
X330000Y260000D02*
D03*
D94*
X161500Y391500D02*
D03*
D95*
X171539Y381461D02*
D03*
Y401539D02*
D03*
X151461D02*
D03*
Y381461D02*
D03*
D96*
X190500Y244000D02*
D03*
X270484Y314308D02*
D03*
X313000Y344000D02*
D03*
X348500Y371500D02*
D03*
X310000Y375000D02*
D03*
X305000Y417500D02*
D03*
X304500Y402000D02*
D03*
X276619Y330705D02*
D03*
X273500Y328000D02*
D03*
X274812Y334671D02*
D03*
X274000Y339000D02*
D03*
X275500Y389500D02*
D03*
X273364Y402349D02*
D03*
X268903Y371903D02*
D03*
X254984Y403463D02*
D03*
X253000Y398500D02*
D03*
X258463Y404959D02*
D03*
X262097Y406029D02*
D03*
X254000Y287968D02*
D03*
X293000Y411000D02*
D03*
X266000Y406000D02*
D03*
X258500Y417000D02*
D03*
X256000Y414000D02*
D03*
X331000Y347000D02*
D03*
X306500Y355000D02*
D03*
X270500Y405500D02*
D03*
X187000Y219000D02*
D03*
X188500Y242500D02*
D03*
X267500Y268000D02*
D03*
X268000Y293000D02*
D03*
X277500Y269000D02*
D03*
X181000Y273500D02*
D03*
X268000Y289500D02*
D03*
X269500Y266000D02*
D03*
X277563D02*
D03*
X169500Y276000D02*
D03*
X183672Y282807D02*
D03*
X168500Y284000D02*
D03*
X192366Y282634D02*
D03*
X254181Y284181D02*
D03*
X192366Y279866D02*
D03*
X199500Y217500D02*
D03*
X278343Y280842D02*
D03*
X273500Y266000D02*
D03*
X312000Y288000D02*
D03*
X305000Y278500D02*
D03*
D97*
X212920Y246920D02*
D03*
X210352Y244352D02*
D03*
X180000Y303500D02*
D03*
X196000D02*
D03*
X235000Y282175D02*
D03*
X276500Y256000D02*
D03*
X291500Y262000D02*
D03*
X272000Y293000D02*
D03*
X193000Y303500D02*
D03*
X183000D02*
D03*
X199000Y233500D02*
D03*
X273500Y296500D02*
D03*
X309453Y297547D02*
D03*
X266500Y261500D02*
D03*
X161547Y279953D02*
D03*
D98*
X260000Y394900D02*
D03*
X262700D02*
D03*
X265400D02*
D03*
X268000D02*
D03*
X260000Y392400D02*
D03*
X262700D02*
D03*
X265400D02*
D03*
X268000D02*
D03*
X260000Y389600D02*
D03*
X262700D02*
D03*
X265400D02*
D03*
X268000D02*
D03*
Y397500D02*
D03*
X265400D02*
D03*
X262700D02*
D03*
X260000D02*
D03*
X176376Y281937D02*
D03*
Y284890D02*
D03*
Y278984D02*
D03*
X186012Y231516D02*
D03*
X187980Y229547D02*
D03*
Y233484D02*
D03*
X184043D02*
D03*
Y229547D02*
D03*
D99*
X257000Y346000D02*
D03*
X259000Y343500D02*
D03*
X258000Y377500D02*
D03*
X256500Y380000D02*
D03*
D100*
X370079Y425197D02*
D03*
Y204724D02*
D03*
X153543D02*
D03*
Y425197D02*
D03*
D101*
X333799Y330000D02*
D03*
X326200D02*
D03*
X330000D02*
D03*
Y300000D02*
D03*
X326200D02*
D03*
X333799D02*
D03*
X260000Y200000D02*
D03*
X263800D02*
D03*
X256201D02*
D03*
M02*
