G04*
G04 #@! TF.GenerationSoftware,Altium Limited,Altium Designer,20.1.11 (218)*
G04*
G04 Layer_Color=32896*
%FSLAX25Y25*%
%MOIN*%
G70*
G04*
G04 #@! TF.SameCoordinates,CF1E9CB3-0BC2-4E6C-9A0D-545EBE8527ED*
G04*
G04*
G04 #@! TF.FilePolarity,Positive*
G04*
G01*
G75*
%ADD14C,0.00600*%
D14*
X334500Y304500D02*
Y306500D01*
X333500D02*
X334500D01*
X181799Y327100D02*
X182332Y327633D01*
Y328699D01*
X181799Y329233D01*
X181266D01*
X180733Y328699D01*
Y328166D01*
Y328699D01*
X180200Y329233D01*
X179666D01*
X179133Y328699D01*
Y327633D01*
X179666Y327100D01*
X182332Y330299D02*
X180200D01*
X179133Y331365D01*
X180200Y332432D01*
X182332D01*
X178600Y333498D02*
Y335631D01*
X179133Y336697D02*
X181266D01*
X182332Y337763D01*
X181266Y338830D01*
X179133D01*
X180733D01*
Y336697D01*
X182332Y339896D02*
X179666D01*
X179133Y340429D01*
Y341495D01*
X179666Y342028D01*
X182332D01*
Y343095D02*
X179133Y345228D01*
X182332D02*
X179133Y343095D01*
X202400Y329766D02*
X201867Y330299D01*
X200800D01*
X200267Y329766D01*
Y329233D01*
X200800Y328699D01*
X201334D01*
X200800D01*
X200267Y328166D01*
Y327633D01*
X200800Y327100D01*
X201867D01*
X202400Y327633D01*
X199201Y330299D02*
Y328166D01*
X198135Y327100D01*
X197068Y328166D01*
Y330299D01*
X223267Y321266D02*
X223800Y321799D01*
X224867D01*
X225400Y321266D01*
Y319133D01*
X224867Y318600D01*
X223800D01*
X223267Y319133D01*
Y320199D01*
X224334D01*
X222201Y318600D02*
Y321799D01*
X220068Y318600D01*
Y321799D01*
X219002D02*
Y318600D01*
X217403D01*
X216869Y319133D01*
Y321266D01*
X217403Y321799D01*
X219002D01*
X161267Y321266D02*
X161801Y321799D01*
X162867D01*
X163400Y321266D01*
Y319133D01*
X162867Y318600D01*
X161801D01*
X161267Y319133D01*
Y320199D01*
X162334D01*
X160201Y318600D02*
Y321799D01*
X158068Y318600D01*
Y321799D01*
X157002D02*
Y318600D01*
X155403D01*
X154869Y319133D01*
Y321266D01*
X155403Y321799D01*
X157002D01*
X331900Y307799D02*
X331367Y308332D01*
X330300D01*
X329767Y307799D01*
Y307266D01*
X330300Y306733D01*
X330834D01*
X330300D01*
X329767Y306200D01*
Y305666D01*
X330300Y305133D01*
X331367D01*
X331900Y305666D01*
X328701Y308332D02*
Y306200D01*
X327635Y305133D01*
X326568Y306200D01*
Y308332D01*
X325502Y304600D02*
X323369D01*
X322303Y305133D02*
Y307266D01*
X321237Y308332D01*
X320170Y307266D01*
Y305133D01*
Y306733D01*
X322303D01*
X319104Y308332D02*
Y305666D01*
X318571Y305133D01*
X317505D01*
X316971Y305666D01*
Y308332D01*
X315905D02*
X313773Y305133D01*
Y308332D02*
X315905Y305133D01*
X322400Y301266D02*
X321867Y301799D01*
X320800D01*
X320267Y301266D01*
Y300733D01*
X320800Y300200D01*
X321334D01*
X320800D01*
X320267Y299666D01*
Y299133D01*
X320800Y298600D01*
X321867D01*
X322400Y299133D01*
X319201Y301799D02*
Y299666D01*
X318135Y298600D01*
X317068Y299666D01*
Y301799D01*
X174900Y251299D02*
Y249166D01*
X173834Y248100D01*
X172767Y249166D01*
Y251299D01*
X169568Y250766D02*
X170101Y251299D01*
X171168D01*
X171701Y250766D01*
Y250233D01*
X171168Y249699D01*
X170101D01*
X169568Y249166D01*
Y248633D01*
X170101Y248100D01*
X171168D01*
X171701Y248633D01*
X166903Y251299D02*
X167969D01*
X168502Y250766D01*
Y248633D01*
X167969Y248100D01*
X166903D01*
X166369Y248633D01*
Y250766D01*
X166903Y251299D01*
X165303D02*
Y248100D01*
X163171D01*
X162104D02*
Y250233D01*
X161038Y251299D01*
X159971Y250233D01*
Y248100D01*
Y249699D01*
X162104D01*
X158905Y248100D02*
Y251299D01*
X157306D01*
X156772Y250766D01*
Y249699D01*
X157306Y249166D01*
X158905D01*
X157839D02*
X156772Y248100D01*
X163267Y260766D02*
X163801Y261299D01*
X164867D01*
X165400Y260766D01*
Y258633D01*
X164867Y258100D01*
X163801D01*
X163267Y258633D01*
Y259700D01*
X164334D01*
X162201Y258100D02*
Y261299D01*
X160068Y258100D01*
Y261299D01*
X159002D02*
Y258100D01*
X157403D01*
X156869Y258633D01*
Y260766D01*
X157403Y261299D01*
X159002D01*
X258400Y271299D02*
Y269166D01*
X257334Y268100D01*
X256267Y269166D01*
Y271299D01*
X255201D02*
Y268100D01*
X253602D01*
X253068Y268633D01*
Y269166D01*
X253602Y269700D01*
X255201D01*
X253602D01*
X253068Y270233D01*
Y270766D01*
X253602Y271299D01*
X255201D01*
X252002Y268100D02*
Y270233D01*
X250936Y271299D01*
X249869Y270233D01*
Y268100D01*
Y269700D01*
X252002D01*
X248803Y271299D02*
X246670D01*
X247737D01*
Y268100D01*
X232267Y262766D02*
X232801Y263299D01*
X233867D01*
X234400Y262766D01*
Y260633D01*
X233867Y260100D01*
X232801D01*
X232267Y260633D01*
Y261700D01*
X233334D01*
X231201Y260100D02*
Y263299D01*
X229068Y260100D01*
Y263299D01*
X228002D02*
Y260100D01*
X226403D01*
X225869Y260633D01*
Y262766D01*
X226403Y263299D01*
X228002D01*
X212900Y271299D02*
Y269166D01*
X211834Y268100D01*
X210767Y269166D01*
Y271299D01*
X207568Y270766D02*
X208102Y271299D01*
X209168D01*
X209701Y270766D01*
Y270233D01*
X209168Y269700D01*
X208102D01*
X207568Y269166D01*
Y268633D01*
X208102Y268100D01*
X209168D01*
X209701Y268633D01*
X206502Y271299D02*
X204369D01*
X205436D01*
Y268100D01*
X201704Y271299D02*
X202770D01*
X203303Y270766D01*
Y268633D01*
X202770Y268100D01*
X201704D01*
X201170Y268633D01*
Y270766D01*
X201704Y271299D01*
X200104Y268100D02*
Y271299D01*
X198505D01*
X197971Y270766D01*
Y269700D01*
X198505Y269166D01*
X200104D01*
X199038D02*
X197971Y268100D01*
X253900Y288600D02*
Y291799D01*
X251767Y288600D01*
Y291799D01*
X248568Y291266D02*
X249101Y291799D01*
X250168D01*
X250701Y291266D01*
Y289133D01*
X250168Y288600D01*
X249101D01*
X248568Y289133D01*
X219767Y291266D02*
X220301Y291799D01*
X221367D01*
X221900Y291266D01*
Y290733D01*
X221367Y290199D01*
X220301D01*
X219767Y289666D01*
Y289133D01*
X220301Y288600D01*
X221367D01*
X221900Y289133D01*
X218701Y291799D02*
Y288600D01*
X217635Y289666D01*
X216568Y288600D01*
Y291799D01*
X215502D02*
Y288600D01*
X213903D01*
X213369Y289133D01*
Y291266D01*
X213903Y291799D01*
X215502D01*
X212303D02*
X211237D01*
X211770D01*
Y288600D01*
X212303D01*
X211237D01*
X208038Y291799D02*
X209104D01*
X209637Y291266D01*
Y289133D01*
X209104Y288600D01*
X208038D01*
X207505Y289133D01*
Y291266D01*
X208038Y291799D01*
X219267Y301266D02*
X219800Y301799D01*
X220867D01*
X221400Y301266D01*
Y300733D01*
X220867Y300200D01*
X219800D01*
X219267Y299666D01*
Y299133D01*
X219800Y298600D01*
X220867D01*
X221400Y299133D01*
X218201Y301799D02*
Y298600D01*
X217135Y299666D01*
X216068Y298600D01*
Y301799D01*
X212869Y301266D02*
X213403Y301799D01*
X214469D01*
X215002Y301266D01*
Y299133D01*
X214469Y298600D01*
X213403D01*
X212869Y299133D01*
X211803Y301799D02*
Y298600D01*
X209670D01*
X208604Y301799D02*
Y298600D01*
Y299666D01*
X206471Y301799D01*
X208071Y300200D01*
X206471Y298600D01*
X259900Y298100D02*
Y301299D01*
X257767Y298100D01*
Y301299D01*
X256701Y298100D02*
Y301299D01*
X255101D01*
X254568Y300766D01*
Y299699D01*
X255101Y299166D01*
X256701D01*
X255635D02*
X254568Y298100D01*
X251369Y300766D02*
X251903Y301299D01*
X252969D01*
X253502Y300766D01*
Y300233D01*
X252969Y299699D01*
X251903D01*
X251369Y299166D01*
Y298633D01*
X251903Y298100D01*
X252969D01*
X253502Y298633D01*
X250303Y301299D02*
X248170D01*
X249237D01*
Y298100D01*
X221400Y308600D02*
Y311799D01*
X219267Y308600D01*
Y311799D01*
X216068Y311266D02*
X216601Y311799D01*
X217668D01*
X218201Y311266D01*
Y309133D01*
X217668Y308600D01*
X216601D01*
X216068Y309133D01*
X248267Y311266D02*
X248800Y311799D01*
X249867D01*
X250400Y311266D01*
Y309133D01*
X249867Y308600D01*
X248800D01*
X248267Y309133D01*
Y310199D01*
X249334D01*
X327266Y335600D02*
X327799Y336133D01*
Y337199D01*
X327266Y337733D01*
X326733D01*
X326200Y337199D01*
Y336666D01*
Y337199D01*
X325666Y337733D01*
X325133D01*
X324600Y337199D01*
Y336133D01*
X325133Y335600D01*
X327799Y338799D02*
X325666D01*
X324600Y339865D01*
X325666Y340932D01*
X327799D01*
X335299Y335600D02*
X335832Y336133D01*
Y337199D01*
X335299Y337733D01*
X334766D01*
X334233Y337199D01*
Y336666D01*
Y337199D01*
X333699Y337733D01*
X333166D01*
X332633Y337199D01*
Y336133D01*
X333166Y335600D01*
X335832Y338799D02*
X333699D01*
X332633Y339865D01*
X333699Y340932D01*
X335832D01*
X332100Y341998D02*
Y344131D01*
X332633Y345197D02*
X334766D01*
X335832Y346263D01*
X334766Y347330D01*
X332633D01*
X334233D01*
Y345197D01*
X335832Y348396D02*
X333166D01*
X332633Y348929D01*
Y349995D01*
X333166Y350529D01*
X335832D01*
Y351595D02*
X332633Y353728D01*
X335832D02*
X332633Y351595D01*
X333900Y313299D02*
Y311166D01*
X332834Y310100D01*
X331767Y311166D01*
Y313299D01*
X328568Y312766D02*
X329101Y313299D01*
X330168D01*
X330701Y312766D01*
Y310633D01*
X330168Y310100D01*
X329101D01*
X328568Y310633D01*
X325369Y312766D02*
X325903Y313299D01*
X326969D01*
X327502Y312766D01*
Y310633D01*
X326969Y310100D01*
X325903D01*
X325369Y310633D01*
X322900Y313299D02*
X320767D01*
X321834D01*
Y310100D01*
X319701Y313299D02*
X317568Y310100D01*
Y313299D02*
X319701Y310100D01*
X312400D02*
Y313299D01*
X310801D01*
X310267Y312766D01*
Y311700D01*
X310801Y311166D01*
X312400D01*
X311334D02*
X310267Y310100D01*
X309201Y313299D02*
X307068Y310100D01*
Y313299D02*
X309201Y310100D01*
X298767Y312766D02*
X299301Y313299D01*
X300367D01*
X300900Y312766D01*
Y310633D01*
X300367Y310100D01*
X299301D01*
X298767Y310633D01*
Y311700D01*
X299834D01*
X300267Y260766D02*
X300800Y261299D01*
X301867D01*
X302400Y260766D01*
Y258633D01*
X301867Y258100D01*
X300800D01*
X300267Y258633D01*
X297068Y260766D02*
X297602Y261299D01*
X298668D01*
X299201Y260766D01*
Y260233D01*
X298668Y259700D01*
X297602D01*
X297068Y259166D01*
Y258633D01*
X297602Y258100D01*
X298668D01*
X299201Y258633D01*
X293869Y258100D02*
X296002D01*
X293869Y260233D01*
Y260766D01*
X294403Y261299D01*
X295469D01*
X296002Y260766D01*
X310767D02*
X311300Y261299D01*
X312367D01*
X312900Y260766D01*
Y258633D01*
X312367Y258100D01*
X311300D01*
X310767Y258633D01*
X307568Y260766D02*
X308102Y261299D01*
X309168D01*
X309701Y260766D01*
Y260233D01*
X309168Y259700D01*
X308102D01*
X307568Y259166D01*
Y258633D01*
X308102Y258100D01*
X309168D01*
X309701Y258633D01*
X306502Y258100D02*
X305436D01*
X305969D01*
Y261299D01*
X306502Y260766D01*
X300267Y271266D02*
X300800Y271799D01*
X301867D01*
X302400Y271266D01*
Y270733D01*
X301867Y270199D01*
X300800D01*
X300267Y269666D01*
Y269133D01*
X300800Y268600D01*
X301867D01*
X302400Y269133D01*
X297068Y271266D02*
X297602Y271799D01*
X298668D01*
X299201Y271266D01*
Y269133D01*
X298668Y268600D01*
X297602D01*
X297068Y269133D01*
X296002Y271799D02*
Y268600D01*
Y269666D01*
X293869Y271799D01*
X295469Y270199D01*
X293869Y268600D01*
X311267Y271266D02*
X311801Y271799D01*
X312867D01*
X313400Y271266D01*
Y269133D01*
X312867Y268600D01*
X311801D01*
X311267Y269133D01*
X308068Y271266D02*
X308601Y271799D01*
X309668D01*
X310201Y271266D01*
Y270733D01*
X309668Y270199D01*
X308601D01*
X308068Y269666D01*
Y269133D01*
X308601Y268600D01*
X309668D01*
X310201Y269133D01*
X307002Y271266D02*
X306469Y271799D01*
X305403D01*
X304869Y271266D01*
Y270733D01*
X305403Y270199D01*
X305936D01*
X305403D01*
X304869Y269666D01*
Y269133D01*
X305403Y268600D01*
X306469D01*
X307002Y269133D01*
X300400Y278100D02*
Y281299D01*
X299334Y280233D01*
X298267Y281299D01*
Y278100D01*
X297201Y281299D02*
X296135D01*
X296668D01*
Y278100D01*
X297201D01*
X296135D01*
X292403Y280766D02*
X292936Y281299D01*
X294002D01*
X294535Y280766D01*
Y280233D01*
X294002Y279699D01*
X292936D01*
X292403Y279166D01*
Y278633D01*
X292936Y278100D01*
X294002D01*
X294535Y278633D01*
X289737Y281299D02*
X290803D01*
X291336Y280766D01*
Y278633D01*
X290803Y278100D01*
X289737D01*
X289204Y278633D01*
Y280766D01*
X289737Y281299D01*
X313400Y280100D02*
Y283299D01*
X312334Y282233D01*
X311267Y283299D01*
Y280100D01*
X308601Y283299D02*
X309668D01*
X310201Y282766D01*
Y280633D01*
X309668Y280100D01*
X308601D01*
X308068Y280633D01*
Y282766D01*
X308601Y283299D01*
X304869Y282766D02*
X305403Y283299D01*
X306469D01*
X307002Y282766D01*
Y282233D01*
X306469Y281699D01*
X305403D01*
X304869Y281166D01*
Y280633D01*
X305403Y280100D01*
X306469D01*
X307002Y280633D01*
X303803Y283299D02*
X302737D01*
X303270D01*
Y280100D01*
X303803D01*
X302737D01*
X299767Y290766D02*
X300301Y291299D01*
X301367D01*
X301900Y290766D01*
Y288633D01*
X301367Y288100D01*
X300301D01*
X299767Y288633D01*
Y289700D01*
X300834D01*
X313400Y292799D02*
Y290666D01*
X312334Y289600D01*
X311267Y290666D01*
Y292799D01*
X308068Y292266D02*
X308601Y292799D01*
X309668D01*
X310201Y292266D01*
Y290133D01*
X309668Y289600D01*
X308601D01*
X308068Y290133D01*
X304869Y292266D02*
X305403Y292799D01*
X306469D01*
X307002Y292266D01*
Y290133D01*
X306469Y289600D01*
X305403D01*
X304869Y290133D01*
X311900Y228100D02*
Y230233D01*
X310834Y231299D01*
X309767Y230233D01*
Y228100D01*
Y229699D01*
X311900D01*
X308701Y228100D02*
Y231299D01*
X306568Y228100D01*
Y231299D01*
X305502Y228100D02*
Y230233D01*
X304436Y231299D01*
X303369Y230233D01*
Y228100D01*
Y229699D01*
X305502D01*
X302303Y231299D02*
Y228100D01*
X300170D01*
X297505Y231299D02*
X298571D01*
X299104Y230766D01*
Y228633D01*
X298571Y228100D01*
X297505D01*
X296972Y228633D01*
Y230766D01*
X297505Y231299D01*
X293773Y230766D02*
X294306Y231299D01*
X295372D01*
X295905Y230766D01*
Y228633D01*
X295372Y228100D01*
X294306D01*
X293773Y228633D01*
Y229699D01*
X294839D01*
X289507Y231299D02*
X288441D01*
X288974D01*
Y228100D01*
X289507D01*
X288441D01*
X286841D02*
Y231299D01*
X284709Y228100D01*
Y231299D01*
X291267Y211266D02*
X291800Y211799D01*
X292867D01*
X293400Y211266D01*
Y209133D01*
X292867Y208600D01*
X291800D01*
X291267Y209133D01*
Y210199D01*
X292334D01*
X290201Y208600D02*
Y211799D01*
X288068Y208600D01*
Y211799D01*
X287002D02*
Y208600D01*
X285403D01*
X284869Y209133D01*
Y211266D01*
X285403Y211799D01*
X287002D01*
X241267Y230266D02*
X241800Y230799D01*
X242867D01*
X243400Y230266D01*
Y229733D01*
X242867Y229200D01*
X241800D01*
X241267Y228666D01*
Y228133D01*
X241800Y227600D01*
X242867D01*
X243400Y228133D01*
X240201Y230799D02*
Y227600D01*
X238601D01*
X238068Y228133D01*
Y230266D01*
X238601Y230799D01*
X240201D01*
X237002Y227600D02*
Y229733D01*
X235936Y230799D01*
X234869Y229733D01*
Y227600D01*
Y229200D01*
X237002D01*
X251767Y232266D02*
X252301Y232799D01*
X253367D01*
X253900Y232266D01*
Y231733D01*
X253367Y231200D01*
X252301D01*
X251767Y230666D01*
Y230133D01*
X252301Y229600D01*
X253367D01*
X253900Y230133D01*
X248568Y232266D02*
X249101Y232799D01*
X250168D01*
X250701Y232266D01*
Y230133D01*
X250168Y229600D01*
X249101D01*
X248568Y230133D01*
X247502Y232799D02*
Y229600D01*
X245369D01*
X264400Y230799D02*
Y228666D01*
X263334Y227600D01*
X262267Y228666D01*
Y230799D01*
X259068Y230266D02*
X259601Y230799D01*
X260668D01*
X261201Y230266D01*
Y228133D01*
X260668Y227600D01*
X259601D01*
X259068Y228133D01*
X255869Y230266D02*
X256403Y230799D01*
X257469D01*
X258002Y230266D01*
Y228133D01*
X257469Y227600D01*
X256403D01*
X255869Y228133D01*
X269267Y230266D02*
X269800Y230799D01*
X270867D01*
X271400Y230266D01*
Y228133D01*
X270867Y227600D01*
X269800D01*
X269267Y228133D01*
Y229200D01*
X270334D01*
X252400Y201299D02*
X251867Y201832D01*
X250800D01*
X250267Y201299D01*
Y200766D01*
X250800Y200233D01*
X251334D01*
X250800D01*
X250267Y199699D01*
Y199166D01*
X250800Y198633D01*
X251867D01*
X252400Y199166D01*
X249201Y201832D02*
Y199699D01*
X248135Y198633D01*
X247068Y199699D01*
Y201832D01*
X246002Y198100D02*
X243869D01*
X242803Y198633D02*
Y200766D01*
X241737Y201832D01*
X240670Y200766D01*
Y198633D01*
Y200233D01*
X242803D01*
X239604Y201832D02*
Y199166D01*
X239071Y198633D01*
X238005D01*
X237472Y199166D01*
Y201832D01*
X236405D02*
X234273Y198633D01*
Y201832D02*
X236405Y198633D01*
X272400Y202766D02*
X271867Y203299D01*
X270800D01*
X270267Y202766D01*
Y202233D01*
X270800Y201699D01*
X271334D01*
X270800D01*
X270267Y201166D01*
Y200633D01*
X270800Y200100D01*
X271867D01*
X272400Y200633D01*
X269201Y203299D02*
Y201166D01*
X268135Y200100D01*
X267068Y201166D01*
Y203299D01*
X240267Y250266D02*
X240800Y250799D01*
X241867D01*
X242400Y250266D01*
Y248133D01*
X241867Y247600D01*
X240800D01*
X240267Y248133D01*
Y249200D01*
X241334D01*
X239201Y250266D02*
X238668Y250799D01*
X237601D01*
X237068Y250266D01*
Y248133D01*
X237601Y247600D01*
X238668D01*
X239201Y248133D01*
Y250266D01*
X250267D02*
X250800Y250799D01*
X251867D01*
X252400Y250266D01*
Y248133D01*
X251867Y247600D01*
X250800D01*
X250267Y248133D01*
Y249200D01*
X251334D01*
X249201Y247600D02*
X248135D01*
X248668D01*
Y250799D01*
X249201Y250266D01*
X260767D02*
X261300Y250799D01*
X262367D01*
X262900Y250266D01*
Y248133D01*
X262367Y247600D01*
X261300D01*
X260767Y248133D01*
Y249200D01*
X261834D01*
X257568Y247600D02*
X259701D01*
X257568Y249733D01*
Y250266D01*
X258102Y250799D01*
X259168D01*
X259701Y250266D01*
X270267D02*
X270800Y250799D01*
X271867D01*
X272400Y250266D01*
Y248133D01*
X271867Y247600D01*
X270800D01*
X270267Y248133D01*
Y249200D01*
X271334D01*
X269201Y250266D02*
X268668Y250799D01*
X267601D01*
X267068Y250266D01*
Y249733D01*
X267601Y249200D01*
X268135D01*
X267601D01*
X267068Y248666D01*
Y248133D01*
X267601Y247600D01*
X268668D01*
X269201Y248133D01*
X280767Y250266D02*
X281300Y250799D01*
X282367D01*
X282900Y250266D01*
Y248133D01*
X282367Y247600D01*
X281300D01*
X280767Y248133D01*
Y249200D01*
X281834D01*
X278101Y247600D02*
Y250799D01*
X279701Y249200D01*
X277568D01*
X290767Y250266D02*
X291301Y250799D01*
X292367D01*
X292900Y250266D01*
Y248133D01*
X292367Y247600D01*
X291301D01*
X290767Y248133D01*
Y249200D01*
X291834D01*
X287568Y250799D02*
X289701D01*
Y249200D01*
X288635Y249733D01*
X288102D01*
X287568Y249200D01*
Y248133D01*
X288102Y247600D01*
X289168D01*
X289701Y248133D01*
X300767Y250266D02*
X301301Y250799D01*
X302367D01*
X302900Y250266D01*
Y248133D01*
X302367Y247600D01*
X301301D01*
X300767Y248133D01*
Y249200D01*
X301834D01*
X297568Y250799D02*
X298635Y250266D01*
X299701Y249200D01*
Y248133D01*
X299168Y247600D01*
X298101D01*
X297568Y248133D01*
Y248666D01*
X298101Y249200D01*
X299701D01*
X312767Y250266D02*
X313300Y250799D01*
X314367D01*
X314900Y250266D01*
Y248133D01*
X314367Y247600D01*
X313300D01*
X312767Y248133D01*
Y249200D01*
X313834D01*
X311701Y247600D02*
Y250799D01*
X309568Y247600D01*
Y250799D01*
X308502D02*
Y247600D01*
X306903D01*
X306369Y248133D01*
Y250266D01*
X306903Y250799D01*
X308502D01*
X340033Y297099D02*
X341100D01*
X340566D01*
Y294434D01*
X341100Y293900D01*
X341633D01*
X342166Y294434D01*
X338967D02*
X338434Y293900D01*
X337367D01*
X336834Y294434D01*
Y296566D01*
X337367Y297099D01*
X338434D01*
X338967Y296566D01*
Y296033D01*
X338434Y295500D01*
X336834D01*
X321033Y330599D02*
X322099D01*
X321566D01*
Y327934D01*
X322099Y327400D01*
X322633D01*
X323166Y327934D01*
X319967Y330066D02*
X319434Y330599D01*
X318367D01*
X317834Y330066D01*
Y329533D01*
X318367Y329000D01*
X317834Y328467D01*
Y327934D01*
X318367Y327400D01*
X319434D01*
X319967Y327934D01*
Y328467D01*
X319434Y329000D01*
X319967Y329533D01*
Y330066D01*
X319434Y329000D02*
X318367D01*
X270533Y197599D02*
X271600D01*
X271066D01*
Y194934D01*
X271600Y194401D01*
X272133D01*
X272666Y194934D01*
X269467Y197599D02*
X267334D01*
Y197066D01*
X269467Y194934D01*
Y194401D01*
M02*
